<svg xmlns="http://www.w3.org/2000/svg" viewBox="0 0 82.17 82.17"><path fill="#F3F4F4" d="M41.09 80.59a39.55 39.55 0 0 1-39.5-39.5c0-21.78 17.72-39.5 39.5-39.5s39.5 17.72 39.5 39.5a39.55 39.55 0 0 1-39.5 39.5zm0-77.01c-20.68 0-37.5 16.82-37.5 37.5s16.82 37.5 37.5 37.5 37.5-16.82 37.5-37.5-16.83-37.5-37.5-37.5z"/><path fill="#F3F4F4" d="M41.92 70.32c-.49 0-1-.43-1-.97V29.9c0-.53.51-.97 1-.97s1 .43 1 .97v39.45c0 .53-.51.97-1 .97z"/><path fill="#F3F4F4" d="M42.32 48.4a.86.86 0 0 1-.73-.42 1.1 1.1 0 0 1 .2-1.41l9.1-7.44c.4-.33.96-.23 1.25.22.29.45.2 1.08-.2 1.41l-9.1 7.44a.76.76 0 0 1-.52.2zM41.64 41.26a.84.84 0 0 1-.45-.13L33 35.71a.74.74 0 0 1-.2-1.06.82.82 0 0 1 1.1-.2l8.2 5.42c.36.24.45.71.2 1.06a.8.8 0 0 1-.66.33z"/><path fill="#F3F4F4" d="M41.78 61.26l-.17-.01c-.17-.03-16.68-2.98-15.69-22.73.98-19.5 14.88-25.28 15.48-25.51.52-.21 1.12.04 1.33.55a1 1 0 0 1-.56 1.3c-.03.01-3.37 1.39-6.77 4.99-4.55 4.82-7.05 11.14-7.44 18.77-.9 17.94 13.38 20.55 13.99 20.66a1 1 0 0 1-.17 1.98z"/><path fill="#F3F4F4" d="M42.7 61.26c-.49 0-.92-.35-1-.83a1 1 0 0 1 .84-1.15c.62-.1 14.89-2.73 13.99-20.66-.93-18.24-14.09-23.71-14.22-23.76a1 1 0 0 1-.56-1.3c.21-.51.8-.76 1.33-.55.59.24 14.5 6.02 15.47 25.52.99 19.75-15.52 22.7-15.69 22.73h-.16z"/></svg>