<svg xmlns="http://www.w3.org/2000/svg" xmlns:xlink="http://www.w3.org/1999/xlink" viewBox="0 0 38.11 41.88"><path fill="#FFF" d="M2.23 5.16h6.03"/><path fill="#C6953E" d="M2.23 4.67h6.03v.99H2.23z"/><path fill="#FFF" d="M8.2 5.16l6.37-3.98"/><path fill="#C6953E" d="M8.46 5.58l-.52-.84 5.4-3.08 1.49-.05z"/><path fill="#FFF" d="M8.26 5.16v34.98"/><path fill="#C6953E" d="M8.76 40.14h-1V5.16h1M29.45 40.64h-6.27V4.89L29.9.69h6.27v35.75l-6.72 4.2zm-5.28-.99h4.99l6.01-3.76V1.68h-4.99l-6.01 3.76v34.21z"/><path fill="#FFF" d="M23.68 5.16h5.63"/><path fill="#C6953E" d="M23.68 4.67h5.63v.99h-5.63z"/><path fill="#FFF" d="M29.25 5.16l6.36-3.98"/><path fill="#C6953E" d="M28.99 4.74L35.36.76l.52.84-6.37 3.98z"/><path fill="#FFF" d="M29.31 5.16v34.98"/><path fill="#C6953E" d="M28.81 5.16h.99v34.98h-.99z"/><g fill="#C6953E"><ellipse transform="rotate(-84.55 32.4 24.9)" cx="32.4" cy="24.9" rx=".99" ry=".66"/><path d="M32.35 26.09h-.06c-.48-.05-.8-.6-.74-1.27.04-.38.2-.73.44-.93a.7.7 0 0 1 .52-.17c.48.05.8.6.74 1.27-.06.63-.45 1.1-.9 1.1zm.11-1.98a.37.37 0 0 0-.21.09c-.16.13-.27.39-.3.66-.04.47.16.81.38.84.21.02.49-.28.53-.75.04-.47-.16-.81-.38-.83l-.02-.01z"/></g><g fill="#C6953E"><ellipse transform="rotate(-84.58 32.4 17.68)" cx="32.4" cy="17.68" rx=".99" ry=".66"/><path d="M32.35 18.87h-.06c-.48-.05-.8-.6-.74-1.27.04-.38.2-.73.44-.93a.7.7 0 0 1 .52-.17c.18.02.35.11.48.27.2.24.3.61.26 1-.04.38-.2.73-.44.93a.75.75 0 0 1-.46.17zm.11-1.98c-.08 0-.16.05-.21.08-.16.13-.27.39-.3.66-.04.47.16.81.38.83.09.01.18-.04.23-.08.16-.13.27-.39.3-.66a1 1 0 0 0-.17-.71c-.04-.05-.11-.12-.21-.13l-.02.01z"/></g><path fill="none" d="M11.48 18.8l.8-1.81 1.97.82V2.56H8.74L2.25 5.41v34.15h5.87l6.13-3.7v-8.64l-2.77-1.15.8-1.81 1.97.82v-5.13z"/><path fill="#C6953E" d="M14.25 35.86l-6.13 3.7H2.25V5.41l6.49-2.85h5.51v15.25l1 .42V1.56h-6.8l-7.2 3.3v35.7H8.4l6.85-4.15v-8.77l-1-.42z"/><path fill="#C6953E" d="M14.25 25.08l1 .43v-5.14l-1-.42z"/><g><path fill="#C6953E" d="M23.87 16.47H12.04c-.45.05-.79.52-.85 1.11-.06.67.26 1.23.74 1.27h11.95v-2.38z"/></g><g><path fill="#C6953E" d="M23.87 23.69H12.04c-.45.05-.79.52-.85 1.11-.06.67.26 1.23.74 1.27h11.95v-2.38z"/></g><g><defs><path id="a" d="M14.75 1.72l-6.25.03-6.27 3.38h6.03z"/></defs><clipPath id="b"><use xlink:href="#a" overflow="visible"/></clipPath><g clip-path="url(#b)"><path fill="#C6953E" d="M1.05-6.31l.56-.57 14.3 14.33-.56.56z"/></g><g clip-path="url(#b)"><path fill="#C6953E" d="M1.36-3.39l.56-.57 14.3 14.33-.56.56z"/></g><g clip-path="url(#b)"><path fill="#C6953E" d="M1.35-.32l.57-.56 14.3 14.32-.56.57z"/></g></g><g><defs><path id="c" d="M35.99 1.07h-6.03l-6.6 4.06 6.08-.4z"/></defs><clipPath id="d"><use xlink:href="#c" overflow="visible"/></clipPath><g clip-path="url(#d)"><path fill="#C6953E" d="M22.49-6.47l.56-.57L37.35 7.3l-.56.56z"/></g><g clip-path="url(#d)"><path fill="#C6953E" d="M22.49-3.4l.56-.56 14.3 14.33-.56.56z"/></g><g clip-path="url(#d)"><path fill="#C6953E" d="M22.48-.32l.57-.57 14.3 14.33-.57.56z"/></g></g><g><path fill="#C6953E" d="M2.23 5.16H8.2v34.93H2.23z"/><path fill="#C6953E" d="M8.4 40.29H2.03V4.96H8.4v35.33zm-5.97-.4H8V5.36H2.43v34.53z"/></g><g><path fill="#C6953E" d="M23.71 5.13h5.57v34.96h-5.57z"/><path fill="#C6953E" d="M29.47 40.29H23.5V4.93h5.97v35.36zm-5.57-.4h5.17V5.33H23.9v34.56z"/></g></svg>