<svg xmlns="http://www.w3.org/2000/svg" viewBox="0 0 252 360"><g fill="#929A9B"><path d="M249.6 170.8l-.3-4.1c-.2-1.7-.5-3.4-.7-5.2-.3-1.8-.5-3.6-.8-5.3-.3-1.8-.8-3.5-1.2-5.3-.8-3.6-1.8-7.2-3.1-10.7-.8-2.3-1.7-4.6-2.7-6.9-1-2.3-1.9-4.6-3-6.9-1-2.2-2.2-4.3-3.4-6.4-1.2-2.1-2.5-4.1-3.7-6.2-.9-1.4-1.8-2.8-2.7-4.1l-3.9-5.1c-1.4-1.7-2.7-3.5-4.2-5.1-1.6-1.8-3.3-3.6-5-5.3-1.8-1.8-3.6-3.6-5.4-5.3-1.6-1.5-3.3-2.9-5-4.3-1.3-1.1-2.7-2-4-3-.8-.6-1.6-1.1-2.4-1.7-1.9-1.3-3.8-2.7-5.7-3.9-2-1.3-4.1-2.4-6.2-3.6-2.4-1.3-4.8-2.5-7.3-3.7-1.9-.9-4-1.7-6-2.5-1.4-.6-2.8-1-4.2-1.5-2.8-1-5.6-2-8.5-2.8-2.3-.7-4.7-1.2-7.1-1.7-1.4-.3-2.9-.6-4.3-.8l-4-.6c-1.9-.3-3.9-.5-5.8-.8-1.7-.2-3.4-.3-5.1-.5-1.5-.1-3-.3-4.5-.3-3 0-6-.2-9 .2-1.7.2-3.5.2-5.2.4l-3.6.3-4.2.6c-1.7.3-3.5.5-5.2.8-2.1.4-4.2 1-6.3 1.5-2.5.7-5 1.3-7.4 2.1-3.5 1.2-6.9 2.5-10.3 3.8-3 1.1-5.9 2.5-8.7 4.1-2.1 1.1-4.2 2.3-6.3 3.5-1.5.8-3 1.7-4.4 2.6-1.2.7-2.3 1.5-3.4 2.3-1.7 1.2-3.4 2.4-5.1 3.7l-6.9 5.7c-.5.4-1 .9-1.5 1.4-.9.8-1.7 1.7-2.6 2.5-1.1 1.1-2.3 2.1-3.3 3.2-1 1-1.9 2-2.8 3.1-.9 1.1-1.9 2.1-2.8 3.2-1.1 1.3-2.2 2.7-3.2 4-1 1.3-2 2.5-2.9 3.8-1.1 1.6-2.1 3.2-3.1 4.8-1 1.5-1.9 3-2.8 4.6-1 1.8-1.9 3.6-2.8 5.4-1.5 2.8-2.8 5.8-4 8.7-1 2.5-2 5-2.9 7.6-1 3.2-2 6.4-2.8 9.6-.7 2.6-1.2 5.2-1.7 7.8-.2 1.1-.5 2.2-.6 3.2-.4 2.3-.6 4.3-.8 6.2l-.6 5.9c-.1 1.6-.2 3.2-.2 4.9 0 2.2.1 4.5.1 6.7 0 1.3.2 2.5.3 3.8.1.9.1 1.9.2 2.8 0 .7.1 1.4.2 2.1.3 2 .6 4 .9 5.9.3 2.1.6 4.2 1.1 6.3.7 3.1 1.6 6.2 2.4 9.2.7 2.3 1.4 4.5 2.2 6.7.8 2.1 1.6 4.2 2.5 6.2 1 2.4 2.1 4.7 3.2 7 .4 1 1 1.9 1.5 2.8.8 1.5 1.7 2.9 2.6 4.4l1.8 3c1 1.6 2.1 3.1 3.1 4.6 1.4 1.9 2.7 3.8 4.2 5.6 1.5 1.9 3.1 3.7 4.7 5.5 2.2 2.6 4.7 5.1 7.2 7.5 1.3 1.3 2.7 2.5 4.1 3.6 1.7 1.4 3.4 2.9 5.2 4.2 1.8 1.4 3.7 2.8 5.6 4.1 1.6 1.1 3.3 2.2 5 3.2 1.6 1 3.2 1.9 4.9 2.8 1.8 1 3.6 1.9 5.4 2.8l3 1.5c1.3.6 2.6 1.1 4 1.7 2.1.8 4.2 1.7 6.4 2.5 1.9.7 3.9 1.3 5.8 1.9l3.1.9c1.9.5 3.7 1 5.6 1.4 1.5.3 3 .6 4.4.9l4 .6 5 .6c1.4.2 2.8.3 4.2.5.9.1 1.7.1 2.6.2 1.8.1 3.5.3 5.3.3 2.6 0 5.2 0 7-.1 2.3-.2 3.9-.3 5.5-.4 1.4-.1 2.7-.2 4.1-.4 1.6-.2 3.2-.6 4.8-.7 2.8-.3 5.5-.9 8.2-1.5 2-.4 4-1.1 6.1-1.6 2.7-.7 5.4-1.6 8-2.6 2.4-.9 4.7-1.8 7.1-2.8 2.2-.9 4.3-1.9 6.4-2.9 1.5-.7 3-1.6 4.6-2.4 1.3-.7 2.6-1.3 3.8-2 2.3-1.4 4.6-2.9 6.9-4.3 1.5-1 2.9-2 4.3-3.1 1.2-.9 2.4-1.8 3.5-2.7 1.4-1.2 2.9-2.3 4.3-3.5 1.9-1.7 3.7-3.4 5.5-5.2 1.2-1.2 2.5-2.4 3.6-3.7 1.3-1.4 2.5-2.8 3.8-4.3 1.2-1.3 2.3-2.7 3.4-4.1.8-1 1.6-2.1 2.4-3.2l2.9-4.1c.5-.8 1-1.7 1.5-2.5.6-.9 1.2-1.8 1.8-2.8.7-1.2 1.5-2.5 2.2-3.8 1-1.9 1.9-3.8 2.8-5.7.7-1.5 1.4-2.9 2-4.4 1.1-2.6 2.1-5.3 3.1-8 1.1-2.9 2-5.8 2.7-8.8.6-2.3 1.1-4.5 1.6-6.8.4-1.7.7-3.5 1-5.3.3-2 .6-4 .8-5.9l.3-3.6c.2-2.5.4-5.1.4-7.6-.2-3.5-.3-7.2-.6-10.9zm-3.3 16c-.2 2.7-.4 5.4-.8 8.1-.4 2.7-.9 5.5-1.4 8.2-.6 3.2-1.4 6.4-2.3 9.5-.7 2.4-1.5 4.8-2.3 7.2-1 2.7-2 5.3-3.1 7.9-.8 1.8-1.6 3.7-2.5 5.5-.9 1.9-1.9 3.7-3 5.5-1.6 2.7-3.3 5.5-5.1 8.1-1.3 2-2.8 3.9-4.3 5.9-1.3 1.7-2.7 3.4-4.1 5-1 1.2-2 2.3-3.1 3.3-1.3 1.4-2.6 2.8-4 4.1-.9.9-1.7 1.7-2.6 2.5-1.9 1.7-3.8 3.3-5.7 4.9-1.7 1.4-3.5 2.7-5.3 4-2.9 2.2-6 4.2-9.2 5.9-1.8 1-3.6 2.1-5.4 3-2 1.1-4.1 2.1-6.2 3-2.6 1.1-5.2 2.2-7.9 3.2-2.5.9-5 1.7-7.5 2.5-1.9.6-3.7 1.2-5.6 1.6-2.6.6-5.2 1.1-7.8 1.6l-3 .6c-.9.2-1.9.2-2.8.3-1.3.2-2.7.3-4 .4-1 .1-2 .1-2.9.2-3.9.4-7.7.3-11.6.3-1.5 0-3.1-.2-4.6-.3-2.2-.2-4.3-.3-6.5-.6-2.6-.3-5.2-.7-7.9-1.1-2-.3-4-.8-5.9-1.3l-5.9-1.5c-1.9-.6-3.8-1.2-5.7-1.9-1.3-.4-2.6-.8-3.8-1.3-1.8-.7-3.6-1.4-5.3-2.2-3.4-1.4-6.7-3.1-10-4.9-2.1-1.1-4.2-2.3-6.2-3.6-2.4-1.5-4.7-3.1-7-4.7-1.6-1.1-3.2-2.3-4.7-3.6-2-1.7-4-3.5-5.9-5.3-1.7-1.5-3.3-3.1-4.9-4.8-1.7-1.8-3.3-3.6-4.9-5.5-1.8-2.2-3.6-4.4-5.3-6.7-1.5-2-2.8-4-4.1-6.1-1.1-1.7-2.1-3.4-3.1-5.1-1-1.8-2-3.7-2.9-5.5-.9-1.8-1.8-3.7-2.7-5.6-.8-1.7-1.4-3.5-2.1-5.2-.9-2.5-1.8-5-2.6-7.5-.8-2.6-1.4-5.3-2.1-8-.4-1.6-.7-3.3-1-4.9l-.9-5.4-.6-5.1c-.1-1.5-.3-2.9-.3-4.4-.1-1.7-.1-3.4-.2-5 0-.7-.1-1.5-.1-2.2 0-1.9.1-3.8.2-5.7.1-1.6.1-3.3.3-4.9.3-2.4.5-4.8.9-7.2.4-2.5.9-4.9 1.4-7.4.6-2.4 1.2-4.9 1.9-7.3.5-1.8 1.1-3.6 1.7-5.3.6-1.9 1.3-3.8 2.1-5.6 1.2-2.8 2.4-5.5 3.7-8.2 1.3-2.6 2.7-5.1 4.1-7.6 1.4-2.5 3-5 4.7-7.3 1.3-1.8 2.6-3.7 3.9-5.5 1-1.4 2.1-2.7 3.3-4 1.2-1.4 2.3-2.8 3.6-4.1 2.3-2.4 4.6-4.7 7-7 1.1-1.1 2.3-2 3.4-3 1.6-1.4 3.2-2.7 4.9-4 1.3-1 2.7-2 4.1-2.9 1.4-1 2.9-2 4.4-2.9 1.7-1.1 3.5-2.1 5.2-3.1 1.6-.9 3.1-1.8 4.7-2.6 1.4-.8 2.9-1.5 4.4-2.1 1.2-.6 2.4-1.1 3.6-1.6 1.5-.6 3.1-1.3 4.6-1.9l4.8-1.8c2-.7 4.1-1.3 6.1-1.8 1.8-.5 3.6-1 5.5-1.5 1.4-.3 2.9-.6 4.4-.8l1.6-.3c1.1-.2 2.1-.3 3.2-.5l5.8-.6c1-.1 2-.3 3-.3 2.7-.2 5.5-.3 8.2-.4v.1h4.4c1.4 0 2.8.2 4.2.3l5.6.6c1.3.1 2.7.3 4 .5l5.1.9c1.1.2 2.1.3 3.2.6 1.6.4 3.2.8 4.9 1.2 1.3.3 2.6.7 3.8 1.1 2.5.8 5 1.7 7.6 2.6 1.9.7 3.8 1.3 5.6 2.1 3.5 1.5 6.9 3.2 10.2 5.1 1.9 1.1 3.9 2 5.7 3.2 3 1.9 6 3.9 8.8 6.1 1.2.9 2.4 1.8 3.5 2.7l3.9 3.3c1.3 1.1 2.5 2.2 3.7 3.4 1.5 1.5 3 3 4.4 4.5 1 1 2 2.1 3 3.2 1.8 2.1 3.5 4.2 5.2 6.3 2.6 3.4 5 6.9 7.2 10.7 1.4 2.4 2.8 4.9 4.1 7.4 1.6 3 2.9 6.1 4.2 9.3 1.1 2.9 2.2 5.8 3.1 8.7.6 1.8 1 3.5 1.5 5.3.6 2.2 1.1 4.4 1.6 6.6.4 1.8.6 3.6.8 5.3.2 1.2.3 2.3.5 3.5.1.6.2 1.1.2 1.7.1 1.5.3 3.1.3 4.6.1 2.8.3 5.5.3 8.3-.3 2.3-.4 4.6-.6 7z"/><path d="M242.2 172.5l-.3-4.4-.6-4.5c-.3-2-.6-4.1-1-6.1-.6-2.7-1.2-5.4-2-8.1-.7-2.6-1.5-5.3-2.4-7.9-.6-1.9-1.3-3.8-2.1-5.6-1-2.4-2.1-4.8-3.3-7.1-.7-1.4-1.4-2.7-2.2-4.1-.9-1.7-1.9-3.4-2.9-5-.9-1.5-1.9-2.9-2.9-4.4-1.2-1.7-2.4-3.5-3.7-5.1-1.7-2.2-3.5-4.4-5.4-6.4-2.5-2.6-5-5.2-7.6-7.7-.7-.7-1.4-1.3-2.2-2-.7-.6-1.4-1.3-2.1-1.9-1.7-1.3-3.3-2.7-5-4-1.3-1-2.5-2-3.9-2.9-2.2-1.4-4.4-2.8-6.7-4.1-2.2-1.3-4.3-2.5-6.6-3.7-2.1-1.1-4.3-2.2-6.5-3.1-2.8-1.2-5.7-2.2-8.5-3.3-2.1-.7-4.2-1.4-6.3-2-1.9-.5-3.7-1.1-5.6-1.5-2.4-.5-4.8-.9-7.2-1.3-2.5-.4-5-.8-7.5-1-2.5-.3-5-.4-7.6-.5-1.2-.1-2.4-.1-3.6-.1-1.4 0-2.8.1-4.2.1-1.5.1-3 .1-4.6.2-2 .2-4.1.5-6.1.7-2.5.3-5 .5-7.5 1.1-1.7.4-3.4.7-5.1 1.1-1.6.4-3.3.8-4.9 1.3-2.3.7-4.7 1.5-7 2.3-3 1.1-6.1 2.4-9.1 3.6-1.5.6-3 1.3-4.4 2.1-1.8.9-3.6 2-5.3 3-1.1.6-2.2 1.3-3.3 1.9l-2.4 1.5c-1.4.9-2.9 1.8-4.3 2.8-1.9 1.4-3.8 2.8-5.6 4.2-1.6 1.3-3.2 2.6-4.8 4-1.3 1.1-2.5 2.4-3.8 3.6l-2.5 2.5-2.7 3c-1 1.1-2.1 2.3-3 3.4-1.2 1.5-2.5 3-3.6 4.6-1 1.3-1.8 2.6-2.7 3.9-1.8 2.6-3.5 5.1-4.9 7.9-.3.6-.6 1.1-.9 1.7-.5 1-1.2 1.9-1.7 2.8-.9 1.8-1.8 3.6-2.6 5.4-.8 1.7-1.6 3.5-2.2 5.2-.9 2.3-1.6 4.6-2.4 6.9-.3 1-.6 2-.9 2.9l-1.5 5.3c-.3 1.1-.5 2.2-.7 3.3-.2 1.2-.5 2.4-.7 3.6l-.6 4.6-.6 4.1c-.2 1.5-.2 3.1-.3 4.6-.1 1.7-.1 3.3-.1 5 0 1.7 0 3.5.1 5.2l.3 6.5.3 3.2c.2 1.5.5 3 .7 4.5.5 2.6.9 5.2 1.5 7.8a108.59 108.59 0 0 0 3.5 12l1.8 4.8c.6 1.5 1.1 2.9 1.8 4.3 1.7 3.8 3.7 7.6 5.9 11.2 1.1 1.8 2.3 3.6 3.4 5.4.5.8 1 1.5 1.5 2.2 1.1 1.4 2.1 2.8 3.2 4.2 1.2 1.6 2.5 3.1 3.7 4.6 1.2 1.4 2.5 2.8 3.8 4.2 1.1 1.2 2.2 2.4 3.4 3.5 1.3 1.2 2.7 2.4 4 3.6 2.1 1.8 4.2 3.5 6.4 5.2 2.2 1.6 4.4 3.2 6.7 4.7 2.1 1.4 4.2 2.6 6.3 3.9 1.8 1 3.6 2 5.4 2.9 2.2 1 4.3 2 6.6 2.9 2.4 1 4.7 2 7.1 2.8 2.2.8 4.5 1.4 6.8 2.1 2 .6 4 1.1 6 1.5 2.4.5 4.8.9 7.3 1.3 1.7.3 3.4.5 5.2.8 1.5.2 3.1.3 4.6.4 2.2.1 4.4.3 6.7.3 2.2.1 4.3 0 6.5 0v-.1c1.3-.1 2.6-.1 3.9-.2.7 0 1.4-.1 2.1-.2l4.3-.6c1.8-.3 3.7-.5 5.5-.8l6-1.2c1.5-.3 3-.7 4.6-1.1 1.4-.4 2.7-.8 4-1.2 1.1-.4 2.3-.7 3.4-1.1 1.4-.5 2.9-1.1 4.3-1.7 2.2-.9 4.5-1.7 6.6-2.7 3.4-1.6 6.6-3.2 9.8-5.1 2.7-1.6 5.4-3.2 7.9-5.1 2-1.5 4.1-3 6-4.5 2.5-1.9 4.9-4 7.2-6.2 2.1-2 4.1-4 6-6.1l2.4-2.7c1.7-2.1 3.4-4.1 5-6.2 1.7-2.3 3.3-4.6 4.8-7 1.2-1.8 2.2-3.7 3.3-5.6 1-1.9 2.1-3.7 3-5.7.8-1.7 1.6-3.5 2.3-5.2.6-1.3 1.1-2.6 1.6-3.9l3-8.4c.6-1.7 1-3.5 1.4-5.3.3-1.2.6-2.3.8-3.5.4-1.8.5-3.6 1-5.4.4-1.7.5-3.4.7-5.1l.3-3.3.3-3.7v-.5l.3-4.9c0-1.4-.1-2.8-.1-4.2.6-1 .5-2.5.5-3.9zm-1.3 16.7c-.1 1.5-.4 3-.6 4.6l-.6 4.8c-.2 1.5-.5 3-.8 4.4-.5 2.3-1.1 4.6-1.7 6.9-1 3.5-2.1 7-3.4 10.4-.9 2.2-1.8 4.4-2.8 6.5l-3 6.3c-.5.9-1 1.8-1.5 2.6-.6 1.1-1.2 2.1-1.9 3.2-.6 1-1.3 2-1.9 3-.9 1.3-1.8 2.7-2.7 4-1.1 1.6-2.3 3.1-3.5 4.6l-2.4 3c-1.3 1.5-2.6 3-4 4.4-1.7 1.8-3.4 3.5-5.3 5.2-2.2 2-4.6 3.9-6.9 5.9-3 2.6-6.3 4.8-9.6 6.9-2.3 1.4-4.6 2.7-6.9 4-2 1.1-4.1 2.2-6.2 3.1-3.3 1.5-6.5 2.9-10 4.1-2.7.9-5.3 1.8-8 2.6-1.3.4-2.6.7-3.9 1-2 .5-3.9.9-5.9 1.3-1.2.2-2.3.4-3.5.5-1.7.2-3.3.5-5 .7-.6.1-1.2.1-1.8.2l-5.7.3c-1.9.1-3.7.1-5.6.2v-.1c-1.4 0-2.9.1-4.3 0-2.4-.1-4.8-.2-7.2-.5-2.5-.2-4.9-.6-7.4-.9-1.7-.3-3.4-.6-5.1-1l-7.6-1.8c-1.7-.5-3.4-1-5.1-1.6-1.8-.6-3.6-1.3-5.4-2-2-.8-3.9-1.5-5.8-2.4-2.6-1.2-5.2-2.6-7.8-3.9-3.3-1.7-6.5-3.7-9.6-5.9-2-1.4-4.1-2.8-6.1-4.3-1.5-1.2-2.9-2.5-4.4-3.7-2.4-1.9-4.6-4.1-6.7-6.3-1-1-2-2.1-2.9-3.2-1.2-1.3-2.4-2.7-3.6-4-1.1-1.4-2.3-2.8-3.3-4.2-1.8-2.5-3.6-5-5.3-7.5-1.2-1.8-2.2-3.6-3.2-5.5-.9-1.6-1.8-3.3-2.6-4.9-.6-1.2-1.2-2.4-1.7-3.6-.8-1.9-1.6-3.7-2.3-5.6-.7-1.8-1.4-3.6-2-5.5-.7-2.1-1.2-4.3-1.8-6.4-.4-1.6-.8-3.2-1.1-4.8-.4-2.2-.8-4.4-1.2-6.7-.3-1.6-.5-3.1-.7-4.7-.1-.6-.1-1.1-.2-1.7-.1-1.9-.3-3.9-.3-5.8 0-3.3-.1-6.6 0-9.9.1-2.3.2-4.6.5-6.9.3-2.4.7-4.8 1-7.2.2-1.1.3-2.2.5-3.3l1.2-5c.7-2.5 1.3-5 2.1-7.5.5-1.7 1.2-3.3 1.8-5 .7-1.8 1.3-3.6 2.1-5.4.8-1.8 1.6-3.6 2.5-5.4.7-1.4 1.4-2.8 2.1-4.1.8-1.5 1.7-2.9 2.6-4.4 1-1.7 2.1-3.3 3.1-5 .9-1.3 1.8-2.6 2.8-3.9 1.8-2.3 3.7-4.7 5.6-7 1.3-1.5 2.7-2.9 4.1-4.4.9-.9 1.7-1.9 2.6-2.7 1.4-1.4 2.9-2.7 4.4-4 1.3-1.1 2.6-2.3 3.9-3.3 1.8-1.4 3.6-2.8 5.5-4 2.3-1.6 4.6-3.1 7-4.5 2.5-1.5 5-3 7.6-4.3 2-1 4.1-1.9 6.1-2.8 1.3-.6 2.7-1.2 4.1-1.7 1.7-.7 3.4-1.3 5.1-1.9 2.2-.7 4.5-1.5 6.7-2.1 2.2-.6 4.5-1.1 6.7-1.6 2.3-.5 4.6-.9 7-1.2 2-.3 4-.5 6-.7l4.2-.3 5.7-.3c1.7 0 3.5.1 5.2.1l4.7.3c1.7.1 3.4.2 5.1.5 2.4.3 4.7.8 7.1 1.2 1.8.3 3.7.7 5.5 1.1 1 .2 2 .6 3.1.9.5.1 1 .2 1.4.3 2.1.7 4.3 1.4 6.4 2.1 1.5.5 3.1 1 4.6 1.6l6.3 2.7c1.9.9 3.7 1.8 5.6 2.8 1.7.9 3.4 2 5.1 3 1.6.9 3.2 1.9 4.8 2.9 1.4.9 2.7 1.8 3.9 2.8 1.8 1.3 3.5 2.7 5.2 4.1 1.7 1.4 3.3 2.8 4.9 4.3 1.9 1.8 3.7 3.6 5.5 5.4.9.9 1.8 1.9 2.6 2.9.9 1 1.9 2.1 2.7 3.1.8.9 1.5 1.8 2.2 2.7.9 1.2 1.9 2.4 2.7 3.7 1 1.5 2.1 3 3 4.5 1 1.5 1.9 3 2.9 4.6.7 1.2 1.3 2.4 2 3.7 1.1 2.2 2.2 4.4 3.2 6.6.6 1.3 1.2 2.6 1.6 3.9 1.1 3 2.2 6 3.1 9 .7 2.2 1.2 4.4 1.7 6.7.5 2 1 4 1.3 6 .4 2.4.6 4.8 1 7.2.4 2.3.6 4.7.6 7 .1 3.4.1 6.9.1 10.3.4 2.1.2 3.8.1 5.6z"/><path d="M81.6 260c-2.1 3.3-4.1 6.5-6.1 9.7 0 0-.1 0-.1-.1v-.3c-.1-4.3-.1-8.6-.1-12.8 0-.6-.2-.9-.7-1.2-1.4-.9-2.8-1.7-4.3-2.6-.7-.4-.8-.4-1.2.3-.5.7-.9 1.4-1.4 2.1-1.5 2.2-2.9 4.5-4.4 6.7-.6 1-1.3 2-1.9 3-.4.6-.7 1.1-1 1.7.2.2.4.3.5.4.9.5 1.7 1 2.6 1.5.5.3.6.3.9-.2.6-.8 1.1-1.7 1.7-2.5 1.2-1.8 2.3-3.6 3.5-5.4.3-.5.7-1 1-1.5.1.2.1.4.1.6v3.7c0 3.1.1 6.2.1 9.3 0 .4.1.7.4.9.4.3.8.5 1.2.8a89 89 0 0 1 3.2 2.1c.4.3.7.2.9-.2 1.3-2.1 2.7-4.2 4.1-6.3 1.2-1.9 2.4-3.7 3.5-5.6.4-.6.7-1.2 1-1.9-1.2-.8-2.2-1.6-3.5-2.2zM201.9 114.8c-1.4 1-2.4 2.3-3 3.9-.7 1.8-.6 3.6 0 5.4.9 2.3 2.1 4.3 3.6 6.3 1 1.3 2.1 2.5 3.2 3.8.4.5.6.6 1.2.2.7-.5 1.5-.9 2.2-1.4 1.5-.9 2.9-1.9 4.4-2.8.4-.2.4-.4.2-.8-1.1-1.8-2.2-3.5-3.4-5.3-.3-.5-.7-1-1-1.5-.2-.3-.5-.4-.7-.2-.8.5-1.6 1.1-2.4 1.6.8 1.3 1.5 2.5 2.3 3.8-.8.5-1.5 1-2.1 1.4-.3-.2-.5-.4-.6-.6-.9-1.1-1.7-2.2-2.3-3.4-1.1-2.1-.6-4.4 1.2-5.9.7-.6 1.5-1 2.4-1.4 1-.5 2-.5 3-.2 2.2.7 3.4 2.3 4 4.4.2.5 0 1.1-.1 1.7-.9.8-.6 1.5 0 2.3.7.9 1.3 1.9 2 3 .4-.3.7-.6 1-.8 1.1-.9 1.6-2.1 1.6-3.4 0-1.1-.2-2.1-.6-3.1-.6-1.7-1.5-3.2-2.5-4.6-1.3-1.6-2.8-3-4.8-3.7-2-.7-3.9-.7-5.8 0-1.2.2-2.1.7-3 1.3zM58.1 112c1.1.7 2.4.9 3.7.9 1.2 0 2.4-.2 3.5-.7 2.5-1.1 4.5-2.7 6.2-4.8 1.1-1.4 1.8-3 1.8-4.9 0-.5-.1-.9-.1-1.4-.3-1.7-1.1-3.2-2.2-4.5-.9-1.1-2-2.1-3.3-2.7-2.4-1.1-5-1-7.3.2-2.5 1.3-4.7 2.9-6.2 5.3-.9 1.3-1.4 2.8-1.4 4.4 0 1.3.4 2.5 1 3.7.9 1.8 2.4 3.3 4.3 4.5zm.3-12.1c.9-1.1 2.1-2.1 3.6-2.3.6-.1 1.3-.1 1.9.2 2.1.8 3.6 2.2 4.3 4.4.4 1.5 0 2.9-1 4.2-.8 1-2 1.4-3.1 1.9-.3.1-.7 0-1 .1-1.9-.1-3.3-1-4.4-2.4-.7-1-1.2-2-1.2-3.3 0-1.2.3-2.1.9-2.8zM165.8 268.7c-.9-1.4-2.1-2.5-3.7-3-2.2-.7-4.5-.4-6.7.2-2.1.6-4.1 1.3-6.2 1.9-1.1.3-2.2.7-3.3 1.1.2.6.4 1.1.5 1.5.6 1.9 1.1 3.7 1.7 5.6.6 2 1.2 4 1.9 5.9.2.8.5 1.5.8 2.3.2.6.3.7.9.5l3-.9c2.8-.8 5.6-1.5 8.3-2.8 3.6-1.7 4.9-4.8 4.3-8.4-.3-1.4-.8-2.7-1.5-3.9zm-3.6 6.9c-.2 1.2-.9 2.1-1.9 2.7-1.5.9-3.1 1.3-4.8 1.7-.2 0-.3.1-.6.1-.2-.3-.4-.7-.5-1.1-.7-2.1-1.4-4.3-2.1-6.4-.2-.5-.3-.9-.5-1.4-.1-.5 0-.7.5-.9 1.4-.4 2.8-.9 4.3-1.2.8-.2 1.6 0 2.4.1 1 .1 1.6.8 2.1 1.6 1 1.4 1.3 3 1.1 4.8zM232.7 159.7c-1.2-1-2.5-1.5-4.1-1.2-1.8.4-3.1 1.4-3.7 3.1-.6 1.7-.5 3.6-.8 5.4-.1.8-.1 1.7-.3 2.5-.1.8-.6 1.2-1.2 1.3-.6.1-1.4-.5-1.6-1.1-.5-1.2-.8-2.4-.5-3.7.2-.9.6-1.6 1.6-1.9.2-.1.5-.1.7-.2.1-1-.2-4.2-.5-4.8-.6.1-1.3.2-1.9.4a4.3 4.3 0 0 0-2.7 2.4c-.5 1.1-.7 2.3-.7 3.5 0 1.3.2 2.5.3 3.8.2 1.6.7 3.1 1.6 4.4 1.2 1.6 2.8 2.3 4.7 2.1 2.3-.3 3.7-1.4 4.3-3.8.2-.7.3-1.5.4-2.2.1-1.3.1-2.6.2-3.9.1-.8.2-1.6 1.1-2.1.6-.3.8-.2 1.2.2.9.9.9 2 1 3.1.1 1.2-.2 2.2-1.5 2.5-.2.1-.4.2-.4.6l.3 2.4c.1.6.2 1.1.2 1.8 1.3 0 2.4-.3 3.3-1.2 1-.9 1.4-2.1 1.5-3.4.2-2.8-.1-5.5-1.2-8.1-.3-.8-.7-1.4-1.3-1.9zM142.6 90.5c2.8 1.3 5.7 2.1 8.8 1.7 1.3-.2 2.5-.7 3.4-1.8.8-1 1.1-2.1 1.1-3.4 0-1.9-.8-3.3-2.5-4.2-1.6-.8-3.3-1.6-4.9-2.5-.5-.2-1-.5-1.3-.9-.5-.5-.3-1.3.3-1.7.4-.3 1-.5 1.5-.3.8.2 1.6.5 2.3.8.6.3 1 .8 1 1.6v.8c.6.1 1.1.2 1.7.4l2.3.6c.3.1.6.2.7-.2.6-1.6.2-3.5-1-4.6a9.1 9.1 0 0 0-4.1-2.2c-1.6-.4-3.2-.7-4.9-.7-.4 0-.8.1-1.1.1-1 .2-2 .5-2.8 1.2-.9.8-1.3 1.9-1.5 3.1-.2 1.4.2 2.6 1.2 3.6s2.2 1.6 3.5 2.2c1.1.5 2.3 1 3.5 1.5.3.1.5.3.8.5.5.4.6.9.4 1.5-.1.6-.5 1-1.1 1-1.6.1-3-.1-4.3-1.1-.2-.2-.5-.5-.6-.8-.1-.6-.2-1.2-.2-1.8-.6-.2-1.2-.4-1.8-.5l-2.4-.6c-.3-.1-.6-.1-.7.3-.2 1-.4 2-.1 3 .2 1.7 1.3 2.8 2.8 3.4zM118 89.5c.5 0 .7-.3.8-.7.3-.7.6-1.5 1-2.2.2-.4.4-.6.8-.6.9 0 1.8-.1 2.7-.1h5.8c.1.1.2.2.2.3.4.8.9 1.7 1.3 2.5.2.3.4.5.8.4 1.4-.1 2.9-.1 4.3-.2.1 0 .3-.1.5-.2l-3.9-7.2c-.9-1.6-1.8-3.3-2.7-4.9-.7-1.3-1.4-2.5-2.1-3.8-.2-.4-.5-.6-1-.5-1.6.1-3.2.1-4.9.1-1.4 2.9-2.8 5.7-4 8.6-1.3 2.9-2.8 5.6-3.9 8.6 1.5-.1 2.9-.1 4.3-.1zm6.4-13.4c.9 2.3 2.2 4.2 3 6.5-.6 0-1.1 0-1.6.1-1.1 0-2.2.1-3.2.1-.2 0-.5-.1-.8-.2.8-2.2 1.7-4.3 2.6-6.5zM183 262c-1.5-.9-3.1-1.9-4.6-2.8-1.1-.7-2.2-1.3-3.3-2a.9.9 0 0 0-1 0c-1.3.7-2.5 1.5-3.8 2.2-.7.4-.6.6-.6 1.3 0 .6.2 1.1.3 1.7l.3 4.6.3 4.6c.2 2 .3 4.1.5 6.1 0 .3.2.6.3.8h.2c1.2-.7 2.4-1.4 3.5-2.1.3-.2.3-.4.3-.7-.1-.9-.1-1.9-.2-2.8 0-.3.1-.6.4-.8 2.3-1.3 4.6-2.6 6.8-4 .5-.3.9-.2 1.3.1.7.5 1.4.9 2.1 1.3.2.2.5.2.8.1 1.3-.8 2.6-1.6 4.1-2.5-.6-.5-1-.8-1.5-1.2-2.1-1.4-4.1-2.7-6.2-3.9zm-5.6 5c-.6.4-1.2.7-1.8 1-.6.3-.8.2-.9-.5-.1-1.4-.3-2.7-.5-4.1-.1-.5-.1-1-.2-1.7 2 1.4 3.9 2.4 5.8 3.9-.9.5-1.7 1-2.4 1.4zM145.3 281.3c-1-1.5-2-2.9-3-4.4l-3.9-6c-.2-.3-.5-.6-.9-.6-1.4.2-2.7.3-4.1.5-1.2.2-1.2.2-1.6 1.4-.4 1-.7 2-1.1 2.9-.8 2.1-1.5 4.1-2.3 6.2-.8 2.2-1.6 4.3-2.4 6.5-.1.2-.1.6 0 .8.2.2.5.2.8.1 1.1-.1 2.1-.3 3.2-.4.5 0 .7-.2.8-.6.3-.8.5-1.6.8-2.4.1-.4.3-.6.8-.6 1.9-.2 3.8-.3 5.7-.7.8-.2 1.7-.1 2.6-.2.3 0 .4.1.6.3.5.8 1 1.5 1.5 2.3.2.3.4.4.8.4 1.5-.2 2.9-.3 4.6-.5-.1-.3-.1-.6-.2-.8l-2.7-4.2zm-12.2-.3c.7-2.2 1.4-4.3 2.2-6.6.7 1.1 1.4 2.1 1.9 3.1s1.4 1.8 1.6 3c-1.9.2-3.8.7-5.7.5zM186.1 106.5c-.6.7-1.2 1.4-1.8 2-.3.3-.3.6 0 .9.4.4.9.8 1.3 1.2.6.5 1.1 1.1 1.7 1.7 1.1 1 2.2 1.9 3.3 2.9 1.1 1 2.1 1.9 3.1 2.9.6.5.8.5 1.3-.1l1.2-1.2c.6-.6.6-.9 0-1.5-.8-.8-1.7-1.6-2.6-2.3-1.1-1-2.2-2.1-3.3-3.1-.2-.2-.3-.4-.1-.7.6-.6 1.2-1.2 1.8-1.9.3.2.5.4.7.5 1.7 1.6 3.4 3.1 5.1 4.7.4.4.7.4 1.1 0 .5-.5 1-1.1 1.5-1.6.4-.5.4-.6-.1-1-1.4-1.4-2.9-2.8-4.3-4.1-.3-.3-.7-.6-1-.9-.1-.1-.2-.5-.1-.6.5-.6 1-1.2 1.6-1.8l6.7 6.1c.2-.1.3-.1.3-.1.6-.7 1.2-1.3 1.8-2 .3-.3.3-.6-.1-.9-1.1-1-2.2-2.1-3.3-3.1l-4.3-4c-.7-.6-1.4-1.2-2.2-1.8-.5.6-1 1.1-1.4 1.6-1.5 1.6-2.9 3.2-4.4 4.8-1.2.9-2.4 2.2-3.5 3.4zM229 144.2c-.5-1-.7-2-1-3-.1-.4-.3-.8-.8-.9l-3.3-.3-3.4-.3c-1.2-.1-2.5-.3-3.7-.4l-3-.3c-1.1-.1-2.1-.3-3.2-.4-.5-.1-1-.1-1.5-.2.1.4.1.7.2.9.4 1 .8 2.1 1.1 3.1.1.5.4.6.9.7l3.1.3 2.4 7.7c.2.5.1.8-.3 1.2-.6.5-1.2 1.1-1.8 1.6-.2.2-.4.4-.3.7.4 1.3.8 2.6 1.3 3.9.1.4.4.4.7.2.3-.2.5-.4.8-.7 3.8-3.8 7.6-7.6 11.5-11.4.3-.8.8-1.3.3-2.4zm-5.4 1c-1.2 1.1-2.3 2.2-3.5 3.3-.4.4-.6.4-.8-.2l-1.2-3.9v-.5c.5-.2 5.3 0 6.6.2-.5.4-.8.8-1.1 1.1zM31.4 157.9c-.3-.1-.7-.1-1-.2-.3 1.7-.5 3.3-.7 5 1.6.5 2.1 1.6 2.1 3.1v1.1c-.1 2.4-1.7 4.4-4.5 4.4-1.5 0-2.8-.3-4.1-1.1-1.4-.8-2.1-2.1-2.2-3.7 0-1 .2-1.9.6-2.8.5-.9 1.2-1.5 2.2-1.6.4 0 .5-.2.6-.5.1-1.1.3-2.2.5-3.3.1-.4.1-.8.2-1.2-.3-.1-.5-.1-.7-.1-2.1-.2-3.6.7-4.9 2.3-1 1.3-1.5 2.8-1.9 4.4-.3 1.5-.5 2.9-.4 4.5.2 2.3 1.2 4.1 2.8 5.6 1.7 1.5 3.9 2.1 6.2 2.2 1.4.1 2.7-.2 4-.5a5.5 5.5 0 0 0 3.3-2.5 9.5 9.5 0 0 0 1.6-3.9c.2-1.2.4-2.5.5-3.7.1-1.2-.1-2.4-.4-3.5-.6-2-1.7-3.5-3.8-4zM101.5 267.9c-1.9-.7-3.9-1.4-5.8-2l-5.7-1.8c-.6-.2-.6-.2-.8.4-.7 2.2-1.4 4.4-2.1 6.7-.7 2.1-1.3 4.3-2 6.4-.2.7-.4 1.5-.7 2.2.2.1.3.2.5.3l5.4 1.8c.9.3 1.8.5 2.6.8l4.2 1.5c.5.2.7.1.9-.5.2-.6.4-1.1.5-1.7.2-.9.6-1-.7-1.5-.1 0-.2-.1-.3-.1-1.8-.6-3.6-1.3-5.5-1.9-.5-.2-1-.3-1.5-.5-.3-.1-.5-.3-.4-.6.2-.8.5-1.6.7-2.5.4.1.6.1.9.2l2.7.9c1 .4 2.1.7 3.1 1.1.3.1.5.2.8.2.4.1.6 0 .7-.4.2-.8.4-1.5.7-2.3.2-.4 0-.6-.4-.7-.9-.3-1.7-.6-2.6-.9-1.4-.5-2.9-1-4.3-1.5-.2-.1-.3-.2-.4-.2.3-.9.5-1.6.8-2.5 1.6.5 3.1 1.1 4.5 1.6 1.1.4 2.2.7 3.4 1.1.3.1.6.1.7-.3.2-.7.5-1.5.7-2.2.2-.7.1-.9-.6-1.1zM171.9 101.2c.6.3 1.2.7 1.8 1.1.8.5 1.6.9 2.4 1.4 5.2-3.5 10.4-6.8 15.4-10.5-1.2-1-2.5-1.7-3.7-2.3-.2-.1-.6 0-.8.1-.7.5-1.5 1-2.2 1.5-2.5 1.8-5.1 3.6-7.6 5.4-.2.2-.5.3-.8.4.7-4.5 1.5-8.8 2.2-13.2-1.5-.9-2.9-1.9-4.5-2.7-.3 2-.7 3.8-1 5.6-.4 2.4-.6 4.9-1 7.3-.2 1.6-.4 3.2-.7 4.7 0 .7.1.9.5 1.2zM120.6 271.6c-1.2 2-2.4 4.1-3.6 6.1-.8 1.3-1.5 2.7-2.3 4-.2.3-.4.5-.6.9-1.3-4.4-2.4-8.7-3.7-12.8-1.7-.2-3.4-.6-5.2-.5 1.8 5.9 3.6 11.7 5.4 17.5.6.1 1.1.1 1.6.2l3.1.3c.9.1.9.2 1.3-.6.9-1.5 1.8-3 2.8-4.4l2.7-4.2c1.1-1.8 2.2-3.6 3.3-5.5.2-.3.2-.6.4-1-1.6-.2-3-.3-4.4-.5-.6 0-.7.2-.8.5zM69.9 90.3c1 1.8 1.9 3.6 2.9 5.3 1.1 1.9 2.1 3.8 3.2 5.7.4.6.5 1.4 1.2 1.8 1-.5 2.1-1.1 3.1-1.6.9-.5 1-.6.5-1.5 0-.1-.1-.1-.1-.2-.7-1.2-1.4-2.4-2-3.7-.4-.8-.4-.9.4-1.3l6-3.3c.4-.2.5-.4.3-.8-.4-.7-.8-1.4-1.1-2.1-.2-.4-.5-.5-.9-.2-.3.2-.5.3-.8.5-1.7.9-3.5 1.8-5.3 2.7-.3.1-.6.3-.9.5-.5-.8-.9-1.5-1.3-2.2-.1-.4-.1-.7.3-.9l7.2-3.9c.1-.1.3-.2.4-.4-.4-.8-.9-1.7-1.3-2.5-.3-.5-.4-.6-1-.3-.1.1-.3.1-.4.2-2.5 1.4-5 2.7-7.5 4.1-1.1.6-2.3 1.3-3.4 1.9-.4.3-.4.6-.2.9.2.4.5.9.7 1.3zM44.7 125.7c.3 0 .6 0 .9.2.9.6 1.8 1.3 2.7 2 .6.4 1.2.9 1.8 1.3.2-.2.3-.4.4-.5l1.9-2.8c.5-.7.5-.7-.2-1.2-1.2-.9-2.4-1.9-3.6-2.9-.2-.1-.3-.4-.4-.6l-1.2-4c-.7-2.2-1.5-4.5-2.2-6.7-.1-.4-.3-.9-.5-1.3-.2.1-.2.1-.3.1-.9 1.1-1.8 2.3-2.7 3.5-.1.2-.1.5 0 .8 0 .2.2.4.2.6.8 2.2 1.5 4.3 2.3 6.5.1.1 0 .3 0 .5-.4-.1-.7-.2-.9-.2-1.1-.1-2.2-.1-3.2-.2-1.3-.1-2.6-.1-3.9-.1-.3 0-.6.1-.8.4-.6.9-1.3 1.8-2 2.7-.4.5-.7 1-1.2 1.7 1.6.1 2.9.2 4.2.2h8.7zM24.3 142.9c.7.3 1.4.6 2.1 1 .4.2.6 0 .8-.3.7-1.4 1.4-2.8 2-4.2.3-.7.4-.8 1.2-.4 2 .9 4.1 1.9 6.1 2.8l4.5 2.1c.3.1.6.2.8.2.7-1.4 1.3-2.7 2-4.2-.4-.2-.7-.4-1-.6-1.1-.5-2.2-1-3.3-1.6-.5-.2-1-.5-1.5-.7-1.9-.9-3.9-1.8-5.8-2.7-.5-.2-.5-.4-.3-.8.7-1.5 1.3-2.9 2-4.4.2-.4.2-.7-.3-.9-.8-.3-1.5-.7-2.2-1-.4-.2-.6-.1-.8.3-.6 1.3-1.2 2.6-1.8 3.8-.3.6-.6 1.1-.9 1.7-.7 1.4-1.3 2.8-2 4.2-.7 1.6-1.5 3.1-2.2 4.7 0 .7 0 .8.6 1zM97.1 89.7c.3 1 .5 2 .8 2.9.2.6.3.6.9.4 1.7-.4 3.4-.9 5.1-1.3 2.4-.6 4.8-1.2 7.2-1.7.4-.1.6-.3.5-.7-.2-1-.5-1.9-.8-2.9-1.6.1-2.9.7-4.3 1-1.4.3-2.9.7-4.3 1-.1-.4-.2-.6-.3-.9-.6-2.2-1.2-4.4-1.7-6.7L99 76.3c-.1-.5-.4-.6-.8-.6l-1.3.3c-1 .2-1.9.5-3 .8.2.9.4 1.7.6 2.5.8 3.5 1.7 7 2.6 10.4zM33.6 149.7c-2.4-.8-4.8-1.6-7.2-2.3-1-.3-2-.7-3.1-1-.7-.2-.7-.2-1 .5 0 .1-.1.2-.1.4-.4 1.1-.7 2.2-1.1 3.4.1.1.3.3.5.3 1.1.4 2.2.7 3.4 1.1 2.3.8 4.7 1.5 7 2.3l4.9 1.5c.4.1.5 0 .6-.3.5-1.3.9-2.7 1.4-4.1-.3-.1-.6-.3-.8-.3l-4.5-1.5zM100.9 125.7c-1.2.8-2.4 1.6-3.4 2.5-.7.6-1.3.6-2.1.6l-4.3-.3h-6c-1.2 0-2.4.1-3.6.2-.5 0-1 .2-1.4.5-.5.3-1 .5-1.6.6-.6.1-1.2.2-1.5.9l.2.2c.1.1.3.2.4.2 1.4.3 2.8.6 4.3.6h4.8c1.3-.1 2.5-.3 3.8-.4 3.3-.1 6.7-.1 10-.2.3 0 .6 0 .7-.4l.9-2.4c.3-.7.5-1.3.8-2 .1-.3.3-.7.4-1.1-.9-.1-1.7 0-2.4.5zM170.6 152.8c1.3-1.7 2.6-3.3 3.9-5 .5-.7 1.1-1.4 1.6-2.1-.2-.2-.4-.3-.6-.5-.5.6-1 1.3-1.5 1.9 0 .2 0 .3-.1.5-1.5 2-3.1 4-4.6 6-2.2 2.9-4.4 5.7-6.7 8.6l-.9 1.2c-.1.2-.2.5.1.6.1 0 .4-.1.5-.2.7-.8 1.3-1.7 2-2.6 2-2.8 4.1-5.6 6.3-8.4zM162.5 150.2c.6-1.4 1.2-2.9 1.8-4.3.5-1.1 1-2.3 1.5-3.4.2-.8.5-1.5.9-2.1 0 0 .1 0 .2-.1-.4-.2-.8-.3-1.1-.5.1.6-.2 1-.4 1.5-.1.3-.3.6-.4.8-.5 1.4-1.1 2.9-1.6 4.3-.6 1.5-1.3 2.9-1.9 4.3l-3.3 8.1c-.3.8-.6 1.6-.9 2.5-.1.3-.1.5.2.6.1-.2.2-.3.3-.4.9-2.1 1.8-4.2 2.7-6.4.7-1.6 1.3-3.3 2-4.9zM149.2 154.8c-.1-1.6-.1-3.2-.2-4.9v-.2l-.3-3.1c-.1-.8-.1-1.6-.2-2.5l-.3-5.5c0-.7-.1-1.4-.1-2.2 0-.3-.1-.5-.4-.5-.3 0-.4.2-.4.5 0 .7.1 1.5.1 2.2.4 1 .1 2.1.3 3.1.2 1.2.1 2.5.3 3.8.2 1 .1 2.1.2 3.2.1 1.2.1 2.4.2 3.6l.3 3.1.3 4.4c0 .2.1.3.2.5h.2v-2.4c0-.9-.2-2-.2-3.1zM166 152.3l3.6-6.3.9-1.2c.3-.8.5-1.6 1.3-2.1-.3-.2-.5-.3-.8-.5-.4.7-.9 1.4-1.3 2-.2.5-.4 1.1-.6 1.5-.5 1-1.1 1.9-1.7 2.9-1 1.8-2 3.5-3 5.3-1.1 1.9-2.1 3.7-3.2 5.6-.5.8-.9 1.7-1.4 2.5l-.3.9c.1 0 .1.1.2.1.2-.2.4-.4.5-.6.5-.9 1.1-1.7 1.5-2.6 1.4-2.4 2.8-4.9 4.3-7.5zM160.5 144.9c.4-1.3.7-2.7 1.1-4 .2-.6.3-1.2.5-1.8.1-.2.2-.3.3-.5-.2-.1-.5-.1-.8-.2-.1.2-.2.3-.2.5-.2.6-.3 1.2-.5 1.7-.1.6-.3 1.1-.4 1.7-.3 1.3-.6 2.6-1 3.9l-1.5 5.1c-.3 1-.5 2.1-.8 3.1-.6 2-1.2 4-1.7 6 0 .2.1.4.1.6h.2l.3-.6.9-2.7c.8-3 1.7-5.9 2.5-8.9.3-1.3.6-2.6 1-3.9zM185 167c1.1-.4 2.3-.7 3.4-1 .5-.2.9-.4 1.4-.6l.6-.3c-.1-.2-.2-.5-.2-.7-.2.1-.4.3-.7.4l-1.5.6c-1.6.6-3.3 1.1-4.9 1.7-2.2.8-4.5 1.6-6.7 2.3-2.6.9-5.1 1.7-7.7 2.6-.3.1-.6.4-.8.6 0 .1.1.1.1.2.3-.1.6-.1.9-.2 1-.3 2-.7 3.1-1 2.1-.7 4.2-1.5 6.3-2.2 1.5-.5 3.1-1 4.6-1.5.7-.4 1.4-.7 2.1-.9zM177.7 161.4c1.9-1.2 3.9-2.5 5.8-3.7.1-.1.4-.1.5-.1.3-.7 1.1-.7 1.5-1.2.1-.1.3-.2.4-.2-.1-.1-.2-.3-.3-.4-.7.4-1.4.8-2.2 1.2-.1.1-.1.2-.2.2-1.5.9-3 1.9-4.4 2.8-2.1 1.3-4.1 2.7-6.2 4.1-2 1.3-4 2.5-6 3.8-.2.1-.3.3-.5.4.2.5.5.3.7.1l4.2-2.7c2.2-1.5 4.4-2.9 6.7-4.3zM156.4 139.6c.1-.8.3-1.6.4-2.3-.2 0-.3 0-.5-.1-.5.7-.5 1.4-.5 2.2l-.6 4.5-.6 5.2c-.2 1.9-.5 3.7-.8 5.6l-.6 4.2c-.1.6-.1 1.1-.2 1.8.6-.1.6-.4.6-.7.1-1 .2-2 .4-3l.6-3.6.3-3.1.9-6.2c.2-1.6.4-3.1.6-4.5zM171.5 146.3c-1.2 1.7-2.3 3.4-3.5 5.2-.5.7-1 1.4-1.4 2.1-.1.2-.1.5-.1.7.1 0 .1 0 .2.1.1-.1.3-.2.4-.4 1-1.5 2.1-3 3.1-4.6.7-1.1 1.5-2.1 2.2-3.2.5-.7.9-1.4 1.4-2.2-.2-.1-.3-.2-.5-.3a4 4 0 0 0-1 1.2c-.1.3-.3.6-.6.7-.1.2-.1.5-.2.7zM160.1 150.3c-.1.3-.2.7.1 1.2.2-.4.4-.6.5-.8l.6-2c.8-2.3 1.5-4.7 2.3-7 .5-.5.4-1.2.6-1.8.1-.2.1-.4.1-.6-.3-.1-.5-.3-.8-.4.1.9-.3 1.6-.7 2.3 0 .2 0 .4-.1.6-.3.9-.5 1.7-.8 2.6-.4 2-1.1 3.9-1.8 5.9zM163.6 151.8c-.1.3-.3.6.1.9.2-.2.3-.4.4-.5.9-1.7 1.7-3.4 2.6-5.1.5-1 1-2.1 1.6-3.1 0-.1.2-.1.3-.1.2-.8.4-1.7 1.2-2.1-.3-.1-.6-.3-.9-.4l-1.2 2.1c0 .2 0 .5-.2.7-.9 1.8-1.9 3.7-2.8 5.5-.3.5-.7 1.3-1.1 2.1zM184.5 158.8c-1.7 1-3.4 2-5.1 2.9-1 .5-1.9 1.1-2.9 1.6-.2.1-.5.3-.3.8.4-.2.8-.3 1.2-.5 2.4-1.4 4.9-2.8 7.3-4.1.1-.1.3-.1.4-.1.7-.4 1.3-.8 2-1.3-.1-.3-.3-.5-.4-.8-.1.2-.2.4-.4.4-.5.3-1.1.5-1.7.8 0 .2 0 .3-.1.3zM178.4 152.2l-1.2 1.2-5.1 4.5c-.2.2-.3.4-.4.6l.2.2c.2-.1.4-.1.5-.2.5-.4 1-.8 1.5-1.3l3.6-3.3c.6-.6 1.3-1.1 2-1.7.5-.5 1.1-1 1.6-1.4.1-.1.2 0 .3 0-.2-.2-.3-.5-.5-.7-.7.5-1.3 1-2 1.5-.1.1-.3.4-.5.6zM156.8 150.2c.1-.2.2-.4.3-.7.4-1.8.8-3.6 1.3-5.4.3-1.3.6-2.6 1-4 .1-.8.3-1.6.4-2.3-.2-.1-.5-.1-.7-.2-.1.8-.3 1.5-.4 2.3v.5l-2.1 8.8c-.2.4-.3.7.2 1zM154.1 139.2c.1-.8.1-1.6.2-2.4 0-.2.1-.4.1-.6-.2-.1-.3-.1-.4-.2-.1.2-.1.5-.2.7-.1.8-.1 1.5-.2 2.3v1.4c-.1 1.3-.3 2.6-.4 3.9l-.3 3.3c-.1.6-.1 1.2-.2 1.8 0 .2.1.3.2.5h.2c.6-3.5.7-7.1 1-10.7zM58.5 161c.5-1.2.4-3.8-.2-4.2-.1.4-.2.8-.2 1.1 0 .9.1 1.9.2 2.8-.1.1.1.2.2.3zM57.2 160.5c.4-1.1.3-2.2.3-3.3 0-.1-.3-.2-.6-.4.1 1.4-.2 2.6.3 3.7zM55.7 160.5c.1 0 .1-.1.2-.1v-3s-.2-.1-.3-.2v3.1c0-.1.1 0 .1.2zM188.7 167.1c-.4.2-.8.3-1.2.5-2.8.8-5.6 1.7-8.4 2.5-.2.1-.4.2-.7.3v.2c.2.1.3.2.5.1l1.1-.3c2.5-.8 5-1.5 7.4-2.2.5-.2 1.1-.3 1.7-.4l2.1-.7c-.1-.2-.1-.3-.2-.5-.8.1-1.6.3-2.3.5zM192.1 170.3l-3.7.7c-.4.1-.9.2-1.3.2-1.9.3-3.9.7-5.8 1l-1.4.3c-.3.1-.5.2-.8.3 0 .4.2.5.5.4.8-.1 1.5-.3 2.3-.4 1.4-.2 2.9-.5 4.3-.7.6-.1 1.3-.3 1.9-.3.7-.1 1.4-.1 2.1-.1.4-.1.8-.2 1.2-.2h.9c-.1-.5.5-.4.7-.7-.3-.2-.5-.3-.9-.5zM186.1 161.5c.1 0 .1-.1.2-.1l2.1-.9c-.2-.3-.3-.7-.5-1 0 .4-.1.7-.6.9-.5.1-.9.3-1.4.4-.4.3-.9.6-1.3.9-1.9.9-3.8 1.8-5.6 2.7-2.5 1.2-4.9 2.4-7.4 3.6-1.3.6-2.6 1.3-3.9 1.9-.2.1-.4.3-.5.4.1.1.1.2.2.3 3.2-1.4 6.3-3 9.5-4.5 3-1.5 6.1-3 9.2-4.6zM182.7 165.2c-1.5.6-3 1.2-4.6 1.9-.3.1-.7.2-.8.8.2 0 .4 0 .6-.1.8-.3 1.6-.6 2.4-1 1.8-.7 3.6-1.5 5.3-2.2.6-.2 1.3-.4 1.9-.6.7-.4 1.3-.8 2.1-.8l-.3-.6-2.7 1c-1.3.5-2.6 1.1-3.9 1.6zM176.6 157.3l3.4-2.8.2-.2s.1 0 .1-.1c.2-.2.4-.4.7-.6.6-.4 1.3-1 1.9-1.5-.2-.2-.4-.5-.6-.7-.5.6-1.1 1.1-1.9 1.5-.2.3-.4.5-.6.8l-2.2 1.9c-1.1.9-2.1 1.8-3.2 2.7l-3.8 3.2c-1 .9-2.1 1.7-3.1 2.6-.9.8-1.8 1.5-2.7 2.3.3.6.6.3.8.1 2-1.7 4.1-3.4 6.1-5.1 1.6-1.3 3.2-2.7 4.9-4.1zM181.4 155.4c-1.9 1.4-3.8 2.9-5.8 4.3-.4.3-.9.6-1.3 1-.2.2-.5.5-.1.8.1-.1.2-.2.3-.2 2.4-1.8 4.9-3.6 7.3-5.4.2-.1.4-.2.5-.2.6-.5 1.2-1.1 1.9-1.6-.1-.2-.3-.3-.4-.5l-2.4 1.8zM174.7 149.4c-1.6 1.9-3.3 3.8-4.9 5.8-.2.3-.5.5-.3 1.1.3-.2.6-.3.8-.5.8-.9 1.5-1.8 2.3-2.7.9-1 1.7-2.1 2.6-3.1l2.5-3-.3-.3c-.3.2-.6.3-.8.5-.4.4-.7.8-1.1 1.2a7 7 0 0 0-.8 1zM171.8 156.7c2-2.1 4-4.1 5.9-6.2h.2c.5-.6 1-1.3 1.7-1.7-.2-.2-.4-.3-.6-.5l-2.4 2.4c-.2.2-.3.4-.5.6a138 138 0 0 0-3.8 3.9c-1.5 1.5-2.9 3.1-4.4 4.6-1.4 1.5-2.9 3-4.3 4.5-.3.3-.5.7-.9 1.1.5.2.7-.1 1-.3 1.1-1.1 2.1-2.2 3.1-3.3 1.8-1.8 3.4-3.5 5-5.1zM150.3 138.7v-2.4c-.2-.1-.3-.3-.6-.4 0 .3-.1.5-.1.7v2.2c.1 1.1.1 2.1.2 3.2v6.8c0 .3.1.7.2 1h.3c.1-.2.2-.5.2-.7v-9c-.1-.5-.2-.9-.2-1.4zM151.8 135.9c-.5-.1-.4.3-.5.5l-.1 2.9v.4c0 1.5-.1 3-.2 4.6-.1 2.8.1 5.6-.1 8.4-.2 2.5 0 5 0 7.5 0 .2.1.4.1.5h.2c.1-.2.2-.5.2-.7.1-1.1.1-2.2.1-3.3.1-2.9.1-5.7.1-8.6.1-3.1.1-6.1.2-9.2v-2.3-.7z"/><path d="M211.2 164.6c-.4-1.9-.8-3.8-1.3-5.6-.7-2.4-1.4-4.9-2.2-7.3-.8-2.2-1.6-4.5-2.6-6.6-.7-1.5-1.4-2.9-2.1-4.3-1-1.9-2.1-3.9-3.2-5.8-.9-1.5-2-2.9-2.9-4.3-1.9-2.8-4.1-5.4-6.4-7.9a75.6 75.6 0 0 0-8.2-7.8c-2.1-1.8-4.4-3.4-6.6-5-2.9-2.1-6-3.8-9.1-5.5-1.7-.9-3.4-1.7-5.2-2.5-2.4-1-4.7-2-7.1-2.8-2-.7-4-1.3-6-1.8-1.4-.4-2.9-.6-4.4-.9-2.2-.4-4.4-.9-6.6-1.2-1.5-.2-3.1-.4-4.6-.4-2.1-.1-4.2-.1-6.4-.2h-3.8c-.5-1-1.1-1.8-1.6-2.7-.4-.7-.8-.8-1.3-.1-.5.7-1 1.4-1.4 2.2-.5 1-1.2 1.2-2.2 1.3-1 .1-1.9.2-2.9.4-1.8.3-3.6.6-5.4 1-2.1.5-4.3.9-6.3 1.6-2 .6-4 1.2-5.9 1.9-1.7.6-3.3 1.3-4.9 2-2 1-4 2-6 3.1-1.8 1-3.7 2-5.4 3.1-1.8 1.2-3.6 2.5-5.3 3.8-1.3 1-2.6 2-3.8 3.1-1.2 1-2.3 2-3.4 3.1-1.8 1.8-3.6 3.5-5.3 5.4-1.4 1.6-2.7 3.3-4 4.9-2.1 2.6-3.9 5.4-5.6 8.3-1.1 1.9-2.2 3.9-3.2 5.9-.9 1.8-1.7 3.7-2.5 5.6-.8 1.9-1.5 3.9-2.1 5.9-.6 1.7-1.1 3.5-1.5 5.3-.4 1.6-.8 3.2-1.1 4.8-.4 2.5-.8 5-1.1 7.4-.2 1.4-.2 2.9-.3 4.3-.1 1-.1 2-.1 2.9 0 .9.1 1.8.1 2.7 0 3 .2 6 .6 9 .3 2.2.6 4.3 1.1 6.5.8 4.1 2 8.1 3.5 12 1.1 2.9 2.3 5.9 3.7 8.7.6 1.2 1.2 2.5 1.9 3.7 1.2 2 2.4 4 3.6 5.9a82.82 82.82 0 0 0 11.8 13.9c2.5 2.3 5 4.6 7.7 6.6 2.3 1.6 4.6 3.2 7 4.7 1.4.9 2.9 1.7 4.4 2.5 1.9 1 3.8 2 5.7 2.9 2.7 1.1 5.4 2.1 8.1 3.1 1.9.7 3.9 1.3 5.9 1.7 2.9.6 5.7 1.3 8.7 1.6 2 .2 3.9.5 5.9.7 1.7.1 3.4.2 5 .2 3.2 0 6.4 0 9.6-.4 1.2-.2 2.5-.2 3.7-.4 1.6-.2 3.3-.5 4.9-.9 2.3-.5 4.6-1 6.9-1.6 2.1-.6 4.1-1.3 6.1-2 1.5-.5 3-1.1 4.4-1.7 2-.9 4-1.8 5.9-2.8 1.9-1 3.8-2 5.7-3.2 2.5-1.6 5-3.3 7.4-5.1 1.8-1.4 3.6-2.9 5.3-4.4 1.1-1 2.2-2 3.2-3.1 1.3-1.3 2.6-2.7 3.9-4.1 1.1-1.3 2.2-2.6 3.2-3.9 1.4-1.9 2.8-3.7 4.1-5.7 1.4-2.2 2.7-4.5 3.9-6.8 1.1-2 2.1-4 3-6.1 1.1-2.6 2-5.2 2.9-7.8.7-2.2 1.2-4.4 1.8-6.6.2-.8.4-1.7.5-2.5.3-1.6.6-3.2.8-4.8l.3-2.8c.2-1.6.4-3.2.4-4.8 0-4.5.2-9-.4-13.4-.4-2.2-.5-4.2-.9-6.1zm-90.8-70.9c.2.3.3.4.4.6 1.2 2.1 2.3 4.2 3.5 6.2 1 1.8 2.2 3.6 3.2 5.4.7 1.3 1.4 2.6 2.1 3.8 0 .1.1.2.1.3 0 1.1-.1 2.2-.1 3.3v18.9c0 3.1.1 6.2.1 9.4v61.1c-.4.1-.9.1-1.3.2s-.8.1-1.3.2v-1-14.4c0-6.8-.1-13.5-.1-20.3v-26.1c0-10.1-.1-20.2-.1-30.2 0-.3-.1-.6-.1-.9h-.3c0 .2-.1.5-.1.7v42.9c0 6.5.1 13 .1 19.5v19.6c0 3 .1 6.1.1 9.1 0 .7 0 1.4-.9 1.6-.4-.1-.5-.4-.5-.9v-23.2c0-14.2 0-28.5-.2-42.7-.1-8.7 0-17.3-.1-26v-2.2c0-.2-.1-.4-.1-.7h-.2c0 .2-.1.3-.1.5v45.5c0 13.1.1 26.3.1 39.4v9.6c0 .4-.1.7-.4.9-.3-.1-.7-.1-1.1-.2v-.8V190c0-14.8-.1-29.7-.1-44.5v-28.4c0-3.6-.1-7.2-.1-10.9 0-.5-.1-1-.3-1.4-.2 1.6-.1 3.3-.2 4.9v69.9c0 1.7.1 3.3.1 5v10c0 1.6.1 3.3.1 4.9v5c-.3-.1-.6-.2-.9-.1-.3 0-.6.2-.9.3 0-.1-.1-.2-.1-.4 0-1.6-.1-3.3-.1-4.9v-32.9-22.1c0-7.8 0-15.5-.2-23.3-.2-8.6 0-17.2-.1-25.7.1-1.2.1-1.4.1-1.7zm82.7 108.2c-.1.2-.1.3-.2.5l-.3.6v.1c-.1.5-.6 1-.3 1.7-.5.4-.6 1-.7 1.6-.1.1-.2.3-.3.4l-.3.9c-.4 1.1-.8 2.1-1.3 3.2-.1.3-.3.7-.4 1-.1.1-.1.2-.2.3-.6 1.3-1.2 2.6-1.9 3.9-.9 1.6-1.8 3.2-2.7 4.7-.8 1.3-1.7 2.6-2.6 3.9-.7 1-1.4 1.9-2.2 2.9-.4.6-.9 1.1-1.3 1.6-2.3 3-4.9 5.7-7.7 8.2-1.5 1.4-3.1 2.7-4.7 4-.1.1-.2.1-.5.3.3-.5.2-1 .7-1.3.1-.1.1-.6 0-.9-.1-.4-.3-.8-.4-1.1-.2-.5-.4-.9-.1-1.5.1-.1 0-.4-.1-.6-.2-.4-.4-.8-.1-1.3.1-.2-.1-.6-.2-.9-.1-.3-.3-.6-.4-.9-.1-.2-.1-.5 0-.6.4-.3.2-.7.2-1.1 0-.6-.1-1.1-.2-1.8.7.7 1.1.6 1.5 0 .3-.4.6-.8.9-1.1 1 .2 1 .2 1.6-.7.2-.3.5-.7.6-1 .4.1.8.1 1.1.2.5-.8 1-1.5 1.4-2.2.8.2 1 .2 1.4-.4.6-1.1 1.2-2.1 1.8-3.3 1.1.2 1.5-.6 1.8-1.5.5-1.3.9-2.5 1.4-3.8.1-.2.2-.3.4-.6.4.9.9 1.7 1.3 2.5.1.1.1.3.2.3.2.1.5.3.7.3.1 0 .3-.3.4-.5l.3-2.5c0-.2.1-.3.1-.6.6.6 1.2 1.2 1.7 1.8.3.4.6.5.9.3.4-.2.5-.5.5-.9-.2-1-.3-2-.5-3v-.8c.3.1.5.1.8.2.8.2 1.2-.2 1-1-.2-.7-.4-1.3-.6-1.9.8 0 1.5.1 2.1.1.4-.3.4-.6.1-.9-.8-.9-1.5-1.9-2.7-2.5-.1 0-.1-.1-.1-.2.8-.5 1.6-1 2.3-1.4.3-.2.6-.3.5-.7-.1-.4-.4-.5-.8-.5-1 0-2 .1-3.1.2-.2 0-.5.1-.9.1.8-1.3 1.4-2.4 2.1-3.6.1-.2.4-.4.1-.7-.3-.3-.6-.2-.8 0-.9.6-1.9 1.3-2.8 2l-.9.6c-.1 0-.1-.1-.2-.1l.3-2.1v-.6c-.2-.4-.5-.5-.8-.2-.3.3-.5.6-.7.9-.4.6-.8 1.2-1.3 2-.1-.3-.1-.5-.2-.6-.2-.6.1-1.3-.4-1.8 0-.1-.1-.1-.1-.2-.2-.2-.4-.4-.5-.6.4-.5 1-.2 1.5-.2.3 0 .6 0 1 .1h1.4l.1-.1c.1 0 .2-.1.3-.1l.1.1c.2 0 .4.1.5.1H203.5c.1 1.1-.2 2.2-.4 3.3zM174 231.2c0 .2 0 .5-.1.6-.5.5-.3 1-.1 1.5.2.7.6 1.3.2 2.1v.2c.5 1 .2 2.1.6 3.1-.2 0-.3 0-.4.1-.2.1-.5.3-.6.5-.1.2.1.4.3.6.3.3.6.6.9 1-.7.3-.8.7-.6 1.3.2.6.1 1-.5 1.3-1.6 1-3.1 2.1-4.6 3.2-.1.1-.2.1-.3.1-.4-.6.4-1.6-.7-2 .1-.5.2-1.1.4-1.6.1-.6.3-1.3.5-1.9.1-.4.1-.6-.2-.8-.5-.4-.3-.8-.2-1.3.1-.3.2-.5.2-.7.2-.6.1-1.2-.4-1.5.1-.9.2-1.6.4-2.4.1-.8-.4-1.4-.7-2.1-.1-.2-.4-.2-.6-.3h-.8c-.2-.5-.4-.9-.6-1.3-.3-.5-.8-.4-1.2-.3-.3-.4-.5-.9-.8-1-.2-.1-.7.3-1.1.4 0-.2 0-.4-.1-.6 0-.2-.1-.5-.3-.5-.2 0-.5.1-.7.2-.2.1-.3.4-.5.8-.1-.3-.1-.5-.1-.6 0-.3 0-.6-.1-.9-.1-.9-.1-.9-1-1-.1-.4-.1-.8-.2-1.2h1.2c.5-1.1-.1-2.4.5-3.5.5.4 1 .7 1.4 1.1.4.4.7.5 1.3.2.3.3.5.6.1 1-.3.3-.3.6.1.8.2.1.3.1.5.2s.4.3.6.5c.3.3-.1.4-.1.6 0 .2.1.4.2.5.2.1.4.1.6.1.8-.1 1 0 1.3.7.1.2.2.3.3.4.4.2.8 0 .8-.5-.1-.9.1-1.6.5-2.4.1-.1.1-.3.1-.4-.4-.6-.1-1.1 0-1.6 0-.2 0-.5-.2-.6-.3-.2-.2-.4-.2-.7.3-.9.3-.9-.4-1.4l.6-1.2c-.5-.4-.6-.8-.2-1.3.1-.1.1-.2.1-.4-.1-.6-.1-1.2.2-1.9.1-.1-.3-.4-.5-.7.1-.5.3-1 .5-1.5.3-.8.3-.8-.5-1.4.3-.5.5-1 .8-1.5.3-.5.3-.8-.2-1.1-.3-.2-.5-.4-.7-.6-.2-.1-.4-.2-.6-.2-.5.1-.7-.2-.8-.5-.3-.7-.7-.8-1.4-.3-.2-.3-.4-.7-.6-1-.5-.8-.6-.9-1.4-.5-.1-.3-.1-.6-.2-.8-.1-.7-.1-.7-.9-.8h-.3c-.2-.8.2-2-1.3-1.9-.2-.5-.4-1-.7-1.6.3-.9.6-2 .9-3.2.3.3.5.5.7.8.5.8 1.1 1.7 1.6 2.5.3.6.9.8 1.5 1.1.2.1.4.1.6.2.5.2.5.4.3.8-.3.6-.2.9.5.9.6 0 1.1.1 1.6.6.2.3.9.3 1.5.4.1.3.2.8.8.8.6-.7 1.4-1.3 2.6-1 .1-.3.1-.5.2-.7.1 0 .2-.1.2-.1h.7c.7 0 .7 0 1-.7h.5c.7 0 .7-.1.8-.8 0-.1.2-.3.3-.4.3-.2.7-.3 1.1-.4 0-.6.1-1.3.9-1.7.2.3.4.6.6.8.4.4.8.4 1.1 0 .4-.7.6-1.4.9-2.1.2.1.3.3.5.4l.1.1c.1.2.2.3.3.5.1 0 .2.1.3.1-.1 0-.2-.1-.3-.1v.6c-.2.1-.4.1-.6.2l-.3.3v.4c-.1.9-.1 1-1 1-.1.1-.3.2-.3.4l-.3 1c-.1.6-.3 1.1-1.1 1.1-.4 0-.6.3-.7.7 0 .2-.1.4-.1.5-.2.8-1 .8-1.5 1.2-.1.1-.3-.1-.5-.2-.5-.2-.6-.1-.8.3-.2.6-.5 1.1-.8 1.7-.2.5-.2 1 0 1.5.2.4.3.7-.2.9-.3.1-.3.5-.2.7.3.7.6 1.5 1 2.3-.1 0-.1.1-.2.1-.8.4-.8.4-.5 1.1.1.2 0 .4.1.7 0 .3 0 .6.1.9.2.4.3.8-.2 1.2-.3.2-.2.5 0 .8.5.9.5 1.1-.2 1.9-.3.3-.3.3 0 .9.5.1 1 0 1.6-.2.6-.3 1.3-.5 1.9-.6.8-.2.9-.3 1-1.2l1.2-.6c.2-.1.4-.3.4-.5 0-.7.6-.7.9-1 .2-.1.4-.2.5-.3.6-.6.6-.8-.1-1.4l1.8-1.2c.9-.6.9-.9.1-1.6l.9-1.2c.1-.2.4-.2.5-.3 0 .2.1.5.1.7 0 .2-.2.5-.3.7-.1.3-.3.6.1.9.3.2.8 0 1.1-.3.2-.2.4-.5.6-.7.2-.2.5-.3.7-.5 1.2 1.9.2 3.5-.5 5.1-1-.2-1.1-.2-1.4.3-.1.2-.1.4-.1.6-.1.3-.2.5-.3.7l-.3.6c-.2.8-.4 1-1.1 1-.5 0-.6.4-.7.7-.2.7-.6 1.2-1.1 1.8-.1-.2-.3-.5-.4-.6-.6.1-.9.4-1.1.8-.1.2-.3.4-.4.7-.1.3-.4.5-.7.4-.5-.1-.7.2-.9.6-.3.5-.6 1-1 1.5-.1 0-.1 0-.2-.1 0-.2 0-.4-.1-.5-.1-.2-.3-.5-.4-.5-.2 0-.6.2-.7.3-.1.7-.6 1.1-1.1 1.5-.3.3-.5.6-.5.9-.1.5 0 1.1 0 1.7zm-6.8 6.8c.1.2.1.4.1.6-.1.6-.2 1.3-.2 1.9 0 .3.2.6.2.9 0 .2.1.5.1.7l-.6 2.3c-.2.9-.2 1 .6 1.5-.1.5-.2 1.1-.3 1.7 0 .1-.2.3-.3.4-1.4.8-2.8 1.6-4.3 2.3-2.1 1-4.2 2-6.4 2.9-1.7.7-3.5 1.3-5.3 1.9-.7.3-1.5.5-2.3.7-.2.1-.5.1-.7.1-1.1-.2-2.3-.6-3.4-.8-.8-.2-1.6-.1-2.4-.3-.7-.1-1.3-.3-2-.5-1.6-.6-3.1-1.3-4.7-1.8-.7-.2-1.4-.3-2.1-.4-.2 0-.5-.1-.7-.2-1.1-.5-2.2-.9-3.2-1.4-1.9-.8-3.7-1.6-5.8-1.9-1.4-.2-2.8-.7-4-1.4-.9-.5-1.8-1.1-2.8-1.5-1.1-.4-2.2-.7-3.3-1-.7-.2-1.4-.5-2.1-.8-.4-.1-.5-.4-.5-.8v-5.8-6.7c0-3-.1-6-.2-9v-1c.2-.2.4-.3.6-.4.1 0 .1.1.2.1.1.1.3.2.3.2.7-.3 1.4.4 2.1 0 .1 0 .2 0 .3.1.3.2.5.2.9.1.2-.1.4 0 .5 0 .8-.1 1.5.4 2.2.1h.4c.6.3.6.3 1.5 0 .1.3.3.6.3.9 0 .7-.1 1.5-.1 2.2 0 4 .1 8 .1 12v9c0 .3.1.7.3.9.2.3.6.2.8-.1.1-.2.1-.4.1-.7v-5.3c0-5.5-.1-10.9-.2-16.4 0-.7 0-1.4.1-2.1 1.1-.3 1.7.2 1.7 1.3v23c0 .3-.2.7.3.9.1-.1.2-.2.2-.3v-.8-23.2-.5c0-.3.2-.5.6-.3.3.1.6.1 1 .2v22c0 1.2.1 2.4.1 3.6 0 .2.1.3.2.5h.2c0-.4.1-.9.1-1.3s-.1-.9-.1-1.3v-23-.4c.3-.1.7-.1 1.1-.2v10.7c0 5.1.1 10.1.1 15.2 0 .2.1.5.1.7h.2c.1-.2.2-.4.2-.6v-13c0-1-.1-2.1-.1-3.1v-9.7c.3-.1.6-.2 1-.2.3.9.4 1.7.3 2.5-.1.4.2.8.2 1.2-.1 1-.1 2-.1 3 0 .5.2.7.8.7.8 0 .9.1 1 .9.1.3.1.6.1.9v14.5c0 1.2-.1 2.4-.1 3.6 0 .2 0 .5.1.7.1.2.3.4.5.4s.5-.2.6-.4c.1-.4.2-.8.2-1.1 0-6-.1-12-.1-18v-.6c.6 0 1.1-.1 1.6.3.3.2.8 0 1.1.2.4.2.7.4 1.1.3.1 0 .3 0 .4.1.3.4.7.4 1.2.2v.4c.1 3.6.1 7.2.2 10.8v8.7c0 .5.1.8.6 1 .4-.1.4-.4.4-.7v-10.5-8.3c0-.3.1-.6.2-.9.6.1 1.1.3 1.7.4.1 6.7.1 13.5.2 20.3.1 0 .1 0 .2.1.1-.1.2-.2.2-.4v-.5-11.8c0-2.1-.1-4.3-.1-6.4v-.8c.4-.1.7-.1 1.2-.2 0 .3.1.5.1.7 0 4.6.1 9.3.1 13.9 0 1.4.1 2.8.1 4.2 0 .5-.1 1-.1 1.5 0 .3-.1.7.3.9.4-.1.3-.5.3-.8 0-2.1-.1-4.3-.1-6.4v-12.6-.7c.2-.1.5-.2.7-.3.4.3.4.6.4 1v19.8c0 .2.1.5.1.7h.3c0-.3.1-.5.1-.8v-12-7.5-.6c.5-.2.8-.4 1.3 0 .2.1.5.1.9.1.1.8.2 1.5.2 2.3v18.4c0 .7.1.8.9.8 0-.3.1-.6.1-.9v-11.4c0-2.2-.1-4.3-.1-6.5V234c0-.5.4-.8.8-.5.5.4 1 .3 1.5-.1.2.5.6.5 1.1.6.8.2 1.6 0 2.3.5.2.2.6.1.9.1.5.4.9.8 1.6.3l.4.4c.5.3 1.3-.1 1.3-.8 0-.4 0-.8.1-1.3.1-.4 0-.8 0-1.2 0-.6-.2-1.2-.1-1.7.2-.7-.1-1.6.4-2.2.2-.2.3-.5.4-.8.6.2 1.3.3 1.4 1.2.1.4.2.9.7 1.1.1.1.2.2.2.4.2.6.3 1.1.5 1.7.4 1.1.7 1.2 1.6.4.2.3.3.6.5.7.2.2.5.5.8.5.2 0 .4-.4.6-.7.1.1.3.4.5.5.3.3.5.7 1 .4.1 0 .2.1.3.1.2.2.3.4.5.6.3.4.7.6 1.3.3-.1.5-.2 1-.3 1.4-.1.4-.1.8-.3 1.2-.4.2-.2.5 0 .9zm-78.8 8.2c-.2-.1-.3-.3-.5-.4-1-1.1-2.1-2.2-3-3.3-.9-1.1-1.7-2.2-2.6-3.3v-.2l.1.1c1.1.5 1.8 1.3 2.5 2.1.5.7 1.1 1.3 1.6 2 .6.7 1.3 1.1 2.1 1.3 1 .3 1.9.8 2.4 1.7.8 1.3 2 2.2 3.5 2.7 1.2.4 2.3 1.2 3.1 2.2.8 1 1.9 1.7 2.9 2.4.5.3.9.7 1.3 1.1l1.2.9c.2.1.4.3.5.4 0 .1-.1.1-.1.2-.7-.2-1.4-.4-2-.6-1.4-.5-2.8-1-4.3-1.5-.9-.3-1.6-.9-2-1.7-.6-1-1.2-1.8-2.3-2.2-.7-.3-1-.9-1.4-1.5-.2-.3-.5-.6-.7-.9-.6-.7-1.4-1.1-2.3-1.5zm1.4 4.5c-1-.5-2-1-3-1.6-.6-.4-1-1-1.4-1.5-.1-.1-.1-.1-.1-.2-1.2-.9-1.6-2.4-2.7-3.4-.3-.3-.4-.8-.3-1.3.4-.2.7-.1 1 .3.4.6 1 1 1.4 1.6.3.4.6 1 .8 1.5.3.8.8 1.3 1.5 1.8 1.1.7 2.4 1.4 2.8 2.8zm12.9 2.4c-1.1-.5-1.9-1.3-2.9-2-1-.8-2-1.5-3-2.2-.7-.6-1.5-1.1-2.2-1.7-.8-.7-1.5-1.6-2.4-2.3-.9-.7-1.9-1.1-2.8-1.7-.4-.3-.9-.5-1.3-.8-1.1-.9-2.1-1.9-3.2-2.8-.1-.1-.3-.2-.4-.4-.8-1.3-1.9-2.3-3.2-3.2-.9-.6-1.7-1.4-2.5-2.1l.2-.2c.2.1.4.2.5.3.4.3.8.6 1.3.8 1.6.5 2.6 1.8 3.7 2.9 1.2 1.3 2.4 2.5 4 3.3.5.2 1 .5 1.5.7.6.3 1.2.7 1.7 1.2s1.1.8 1.7 1.2c.3.2.6.5.8.8.2.3.4.6.7.8l3.8 3.2c.3.2.6.4.9.5 2.4.8 4.5 2 6.6 3.5 1.3 1 2.7 2 4.1 2.9.5.3 1.2.5 1.8.7 1.4.5 2.8 1 4 2.3h-.8c-1-.1-2-.3-3-.4-1.3-.2-2.6-.6-3.7-1.3-.8-.6-1.6-1.1-2.4-1.7a8.9 8.9 0 0 0-3.5-2.3zM70.8 230c-1.3-.7-2.6-1.6-3.3-3-.3-.6-.1-1.2.6-1.3.8-.2 1.6-.2 2.4-.3.4-.1.6.1.8.4l4 5.5c1.6 2.2 3.3 4.3 4.9 6.4.3.4.6.9 1 1.5-.8.2-1.5.4-2.2.6l-3.2.9c-.3.1-.5.2-.8.2-.2 0-.4 0-.5-.1-.5-.4-1.1-.8-1.5-1.2-.3-.4-.5-1-.6-1.5-.5-1.5-.5-3.1-.6-4.6-.1-.7-.1-1.3-.1-2 .1-.8-.2-1.1-.9-1.5zm.4 7.7c-.2-.2-.4-.3-.5-.5-.4-.8-.5-2.5-.2-3.6.1 1.4.8 2.6.7 4.1zm-8.1-12.6c-.1-.1-.1-.1-.1-.2-.1-1-.5-1.9-.4-3 0-.5-.2-.9-.3-1.4-.1-1.2-.1-2.3-.2-3.5 0-.5.1-1 .2-1.5h.1c0 .6.1 1.2.1 1.7l.3 3.1v.3c.1.7-.1 1.4.3 2 .2.3 0 .8 0 1.1v1.4zM61 214.7c-.1-.1 0-.3 0-.5-.1-1.3-.1-2.6-.2-3.9 0-.1 0-.2.1-.5.2.3.3.4.3.5l.3 3.5c0 .7.1 1.3 0 2 0 .6-.1 1.3-.2 1.9h-.1v-1.3c.1-.5.3-1.1-.2-1.7zm-3.6-8.2h-2.3c.9-.5 1.7-.9 2.4-1.4.4-.2.8-.3 1.2-.2.5.1 1 .3 1.6.4.2.1.3.2.5.3-.1.2-.2.4-.4.5-.9.6-2 .4-3 .4zm1.9 16.9h-.2c-.1-.2-.3-.5-.3-.7l-.3-5.5h.3c.2 1 .4 2.1.5 3.1.1 1 0 2 0 3.1zM57 215c.2-2.1-.1-4.2 0-6.3v-1c.1 0 .2 0 .3-.1.1.3.2.6.2.9 0 .6-.1 1.2-.1 1.8 0 .6.1 1.1.1 1.7v4.1c0 1 .2 2 0 3.1 0 .3.2.6.2.9 0 .2-.1.4-.2.6h-.2c-.1-.3-.2-.6-.3-.8-.1-1.1-.3-2.1-.1-3.2.3-.7 0-1.2.1-1.7zm-1.6-6.6v-.8c.4-.2.6-.1.6.3v8.2c0 .2-.1.4-.1.8-.4-.5-.5-.9-.5-1.3 0-.9-.1-1.8 0-2.6.1-1.5 0-3.1 0-4.6zm-1.8 1v-1.6c0-.2.2-.3.4-.6.7 2.3.4 4.4.5 6.5-.6-.7-1-2.3-.9-3.2v-1.1zm.4-19.2h.3c.1.3.2.6.2.9v1.8c0 .4-.2.8.2 1.2v5.3c-.7-3.1-.4-6.2-.7-9.2zm-2.7-2.9c-1.2 0-2.4-.2-3.7-.5.5-.5 1.1-.7 1.7-.7 1.2 0 2.1-.3 3-1 .4-.3.7-.3 1.1-.1.4.3.9.6 1.4.9.1.1.3.2.2.3 0 .1-.2.3-.3.4-1.1.2-2.2.7-3.4.7zm1.6 9.7c0-1.2-.2-2.5-.3-3.7-.1-1.4 0-2.9 0-4.4.5.5.6 1 .6 1.6 0 .7.2 1.4.2 2.1 0 .4.1.9.1 1.3v11c0 .3 0 .7-.6.7v-1-7.6zm-1.4 4.7c0-1.2-.1-2.4-.1-3.6 0-1-.1-2.1-.1-3.1 0-.3.1-.5.1-.8 0-.9-.1-1.8-.2-2.8 0-.7-.1-1.5-.1-2.2 0-.2.2-.4.3-.6.5.2.6.6.6 1v2.9c0 .7.1 1.3.2 2 0 .2.1.3.1.5v3.3c0 .3-.1.6-.1.9-.2 1-.2 1.9 0 2.9v.5c-.1.5-.3 1 .2 1.4.1.1 0 .2 0 .3v4.7c-.2-.4-.5-.6-.5-.8l-.3-3.9v-.2c.2-.8-.1-1.6-.1-2.4zm-2.1-4v.2l-.3 2s-.1 0-.1.1c-.1-.4-.3-.8-.3-1.1-.1-.9-.2-1.8-.1-2.7 0-2.5.1-5 .1-7.4 0-.1.1-.2.2-.4.4.5.4.9.4 1.4v6.2c-.1.5-.4 1.1.1 1.7zm-2.7-17.4c.1.4.3.8.1 1.3-.1.1 0 .3 0 .5 0 .6.1 1.1.1 1.7-.1.9-.2 1.7-.4 2.6h-.2v-2.2c0-1.2.1-2.4-.2-3.6-.1-.6.2-1.2.3-1.8 0-.3.1-.6 0-.8-.2-1-.1-1.9.1-2.8.1-.5.1-1.1.2-1.6 0-.2.2-.5.4-.6.3-.1.4.2.4.5 0 .6.1 1.3-.1 1.9-.2.9-.1 1.7 0 2.6v.4c0 .1-.1.1-.1.1-.3.2-.7.3-.7.5s0 .8.1 1.3zm66.1 22.4v1.9c-.6 0-1.1.3-1.7.1h-.4c-.3.2-.6.2-.9.1-.2 0-.5.1-.7.1-.2 0-.4 0-.6.1-.8.4-1.8-.1-2.6.3-.1.1-.3 0-.5 0-.8-.1-1.3.5-1.1 1.2.2.6.2 2.1.1 2.8 0 .3.1.5.1.9-.5.2-.9.5-1.5.2-.6.4-1.3-.2-1.9.2-.6-.4-1.3.2-1.9-.2-.1-.1-.3 0-.4 0-.3.2-.5.1-.8 0-.1-.1-.3-.1-.4-.1-.6.3-1.1-.2-1.6 0 0-.8-.2-1.6-.1-2.4.1-.6.1-1.3.1-1.8 0-.6.3-1.2 0-1.8-.1-.3-.1-.5 0-.7.1-.2.1-.3.1-.5v-.7c0-.3-.1-.5-.1-.8 0-.6-.2-1.3.4-1.7.5-.1.9-.1 1.4-.2.1 0 .2-.1.2-.1 1.1.3 2.1-.3 3.2-.1.1 0 .3 0 .4-.1.3-.2.6-.3 1-.1h.2c.6-.1 1.1-.4 1.7-.4.7.1 1.3-.6 2-.2.6-.3 1.3.2 1.8-.3.7.2 1.3-.6 2.1-.2.6-.4 1.4-.1 2.1-.4.3 1.3.3 2.5.1 3.7 0 .6.1.9.2 1.2zm-10.7 38.2v-2.1h7.4c.1.7.1 1.4.2 2.2-2.6.2-5.1 0-7.6-.1zm7.5 1v1.6c-1.7-.3-3.4-.8-5-1.4v-.2h5zm-14.1-5.1c-1.3-.9-2.7-1.8-4-2.7-.9-.6-1.9-1.2-2.9-1.8-.9-.5-1.1-1.2-.6-2.3 4.5 2.9 9 5.7 13.6 8.6v1.4c0 .6-.3.7-.7.4-1.9-1.3-3.7-2.4-5.4-3.6zm1.8 2.3c-1-.4-1.8-.7-2.6-1.2-.9-.6-1.8-1.2-2.8-1.8-1.2-.8-2.4-1.7-3.6-2.5l-.6-.6c1.1.2 8.7 5.1 9.6 6.1zm-9.9-12v.8c-1.3.2-2.5.5-3.8.7v-.7-4.3c0-.6-.1-.6-.8-.6v5c0 .8 0 .8-.7.9-.1 0-.3.1-.5.1v-5.8c-.7-.1-.8-.1-.8.5v4.6c0 .7-.1.7-.9.6v-2.5-2.2-.5c0-.1-.2-.3-.3-.3-.2 0-.3.1-.4.3-.1.1 0 .2-.1.4 0 1.5-.1 3-.1 4.6v.2c0 .3-.1.6-.5.6s-.4-.3-.5-.5c0-.6 0-1.2.1-1.8v-1c0-.3-.1-.7 0-.9.2-.5 0-1-.2-1.6-.2.2-.4.3-.5.4-.1.1 0 .3 0 .4-.1 1.7-.1 3.4-.2 5.1-.4.1-.8.2-1.3.3 0-2-.1-3.9-.1-5.7-.5-.1-.7-.1-.7.3v1c0 1.1-.1 2.2-.1 3.3-.1 0-.1 0-.2.1-1.1-1.4-2.2-2.9-3.3-4.4-.7.1-1.4.1-2.1.2-.5.1-1.1.1-1.6.2-.3 0-.6-.1-.7-.6.3-.1.5-.2.8-.2 2-.3 4-.5 6-.8l3.5-.3 4.1-.6 3.3-.3c1.2-.1 2.5-.3 3.7-.4.6-.1 1.2-.1 1.8-.2.7-.1.7-.1.7-.8 0-1.2-.1-2.4-.2-3.6-.1-2.1-.1-4.1-.2-6.2 0-1.8-.1-3.6-.2-5.3-.1-5-.1-10.1-.1-15.1 0-1.7.1-3.4.2-5.1l.3-5c.1-1.5.4-2.9.6-4.4.2-1.2.3-2.5.5-3.7.1-.8.3-1.6.5-2.5 2.4.1 4.7.1 7.1.2v14.7c0 .5-.1 1-.3 1.4-.9 2.8-1.7 5.7-2.4 8.6-.3 1.3-.6 2.5-1 3.8h-.4c-.5 0-.9.5-.9 1s.1 1 .2 1.4c.1.7 0 1.5.2 2.2.2 1.1-.2 2.1-.4 3.2s-.4 2.3-.5 3.4c-.2 1.2-.4 2.4-.6 3.7-.2 1.2-.3 2.4-.5 3.7-.2 1.5-.4 3.1-.7 4.8l-2 .3-2.3.3c-.4.1-.5.3-.5.7v3.9zm-.3 2.7c.1.2.1.3.1.4.1 1.4.1 1.3-1.3 1.6-1.1.2-2.1.5-3.2.7-1.4.3-2.9.6-4.3.8-.4.1-.7 0-.9-.4-.2-.4-.7-.6-.7-1.2 3.5-.6 6.9-1.3 10.3-1.9zm-10.3 1.4c-.2 0-.4 0-.7-.2.8-.6 1.8-.5 2.7-.7.9-.3 1.9-.4 2.9-.5.9-.2 1.9-.3 2.8-.5.9-.2 1.8-.3 2.8-.5 0 .1 0 .2.1.3-.5.2-1.1.4-1.6.5-1.9.3-3.7.6-5.6 1-1.3.1-2.4.4-3.4.6zm-24.5-53.5h.2v2.3h-.2c-.1-.7-.1-1.5 0-2.3zm0-6.5c.1 0 .1 0 .1.1l-.1.1v-.2zm.1-2.4c-.4-2-.7-3.9-1.1-5.9-.2-1.4-.4-2.8-.6-4.4.3.2.6.3.9.4.9.6 1 .6 1.8-.1 0 .3.1.5.1.7.1.8.1 1.5.2 2.3.1 1 .7 1.4 1.9 1.3-.1-.6-.1-1.3-.2-2 .2 0 .3 0 .4.1l3.3 1.2c.6.2.8.6.9 1.2l.6 4.7c.2 1.3.3 2.6.5 3.9.1.6.3 1.2.4 1.9.2.9.3 1.9.5 2.8.3 1.4.5 2.8.8 4.2.2 1.1.5 2.2.7 3.3l1.2 4.9c.3 1.2.7 2.5 1 3.7.8 2.5 1.5 5.1 2.3 7.6.7 2.1 1.5 4.2 2.2 6.3.5 1.4.9 2.8 1.5 4.2.9 2.2 1.9 4.3 2.8 6.4.5 1.1.9 2.1 1.4 3.3-1.3.3-2.5.7-3.7 1-1.1-2-2.2-4-3.2-6.1-1.1-2.1-2.1-4.2-3.1-6.4l-1.8-4.2c-.4-.9-.8-1.8-1.2-2.8-.8-1.9-1.5-3.8-2.3-5.7-.6-1.5-1.2-3-1.7-4.5-.6-1.6-1.1-3.3-1.7-5-.6-1.9-1.2-3.7-1.7-5.6-.6-2.1-1.1-4.2-1.7-6.3-.4-2.1-.9-4.3-1.4-6.4zm2.6-6.3c-.5.1-.7-.1-.7-.5-.1-1.3-.3-2.5-.4-4 .4.1.5.1.8.2 0 1.5.1 2.9.3 4.3zm-.2-5.1c.8-.6 1.5-1.4 2.7-1.4.3 0 .6-.2.9-.3.2.2.5.3.7.5.1.2.3.4.3.6v5.2c-.6-.2-1.1-.3-1.6-.5-.6-.2-1.2-.6-1.8-.7-.6-.2-.7-.5-.7-1s-.1-.9-.1-1.4a3 3 0 0 1-.4-1zm10.9 9.6c.2.1.4.2.6.2.9.3 1 .2.8-.8v-.3-.8c1-.2 1-.2 1.1.8.1 1.7.1 3.4.4 5.1.1.6.1 1.2.2 1.8l.3 4c.1 1.3.4 2.6.6 3.9.1.9.2 1.8.4 2.7.3 1.7.6 3.4.9 5.2.2 1.3.4 2.6.7 3.9l.6 3.1c.2 1.2.5 2.3.7 3.5.4 1.6.7 3.3 1.2 4.9.8 2.8 1.5 5.6 2.4 8.4.5 1.7 1.2 3.4 1.8 5.2.3.8.6 1.6.9 2.5-.9.1-1.7.3-2.6.4-.6-1.3-1.2-2.5-1.7-3.8-.7-1.6-1.4-3.2-2-4.8-.5-1.4-1.1-2.7-1.6-4.1-.7-1.8-1.4-3.6-2-5.5-1-3.1-2.1-6.2-2.9-9.4-.5-2.1-1.2-4.1-1.7-6.2-.6-2.4-1.1-4.9-1.7-7.4-.4-1.6-.7-3.3-1-4.9l-.9-5.2-.6-4.8c-.1-.5 0-.9 0-1.5.9.2 1.7.4 2.5.6.6.2 1.2.5 1.9-.3 0 .5 0 .7.1 1 .1.7.1 1.3.2 2-.1.2.2.4.4.6zm-.3-4.3c.5.1.8.2.8.7l.3 2.6v.6c-.3-.1-.5-.1-.7-.2-.1-1.2-.3-2.4-.4-3.7zm14.6 7v-1.5c.2-.1.2-.1.3-.1.9 0 1.8.1 2.7.1.3 0 .4.2.4.4v.1c-.1 1.5-.2 2.9-.2 4.4v10.1c0 1.8.2 3.6.3 5.3.1 1.8.3 3.6.4 5.4.1.9.1 1.8.2 2.7.1 1.6.3 3.3.4 4.9.1.8.1 1.6.2 2.5 0 .4.1.9.1 1.3l.3 3.4c.1 1.3.3 2.6.4 3.9.1.8.1 1.5.2 2.3.1 1.3.3 2.6.4 3.9v1.2l-3.1-.3c-.4-1.3-.7-2.7-1.1-4.1l-.6-2.3c-.3-1.5-.6-3-1-4.5-.2-1-.5-1.9-.6-2.8l-.9-5c-.3-1.8-.5-3.6-.8-5.4-.2-1.5-.3-3.1-.5-4.6-.2-1.4-.3-2.9-.5-4.3v-.2c-.1-1.5-.1-3-.2-4.5 0-.5-.1-1-.1-1.5-.1-1.3-.1-2.6-.2-3.9-.1-2.8-.1-5.6-.2-8.4v-.9c.6.1 1.1.1 1.7.2v2.1c1 .1 1.5.1 2 .1zm-1.1-3.1c.4-.1.6-.1.6.3v2.1c-.3.1-.6.1-.6-.3v-2.1zm8.7.8c.6.8.1 1.8.6 2.7h-.9c.1-.9-.2-1.9.3-2.7zm.9 3.4v-1.9c1.1.2 2.1.5 3.2.7-.1.8-.1 1.6-.2 2.4-.1 1.1-.3 2.3-.4 3.4-.1 1-.3 2-.4 3-.1.7-.2 1.4-.2 2.1-.1 1.3-.1 2.5-.2 3.8-.5 6.1-.3 12.3-.3 18.4 0 2.6.1 5.1.1 7.7 0 1.7.1 3.3.2 5 .1 1.6.1 3.1.2 4.7v.5c-1.1-.1-2.2-.2-3.3-.4-.1-.1-.2-.3-.2-.5-.1-.6-.1-1.2-.2-1.8-.1-1.4-.3-2.8-.5-4.1-.1-.7-.1-1.4-.2-2.1-.1-1.4-.3-2.7-.4-4.1-.1-.5-.1-1.1-.1-1.6-.1-1.1-.3-2.2-.4-3.4-.2-1.5-.3-3-.4-4.5-.1-.7-.1-1.4-.2-2.1-.1-1.1-.1-2.3-.2-3.4-.1-1.5-.3-3-.4-4.4v-.3c-.1-5-.1-9.9-.1-14.9 0-1.3.2-2.6.3-3.8 0-.2.1-.5.2-.7.7.1 1.4.2 2 .2.3 0 .4.2.4.4 0 .5.1 1 .2 1.5.4.1.9.1 1.5.2zm-1.9-4.1c-.2.2-.5.6-.8.9h-.1V166c0-.5.1-1-.1-1.5h-.3c-.1.5-.2 1.1-.2 1.6v1.5c0 .3-.1.4-.5.3v-2.4c0-.3-.1-.6-.5-.6-.1 1-.1 1.9-.2 2.9h-.2c-.3-.8.2-1.8-.3-2.6h-.2l-.3 2.5c-.1-.3-.2-.4-.2-.5V165c0-.2.2-.4.3-.5 1-.3 2.1-.7 3.2 0 .4.2.6.5.6.9-.2.3-.2.8-.2 1.3zM77 187.8c.1.7.1 1.4.2 2.2.2 1.8.3 3.5.5 5.3.1 1.2.4 2.4.6 3.6.2 1.2.3 2.4.5 3.6.1.9.3 1.9.5 2.8.2 1.3.5 2.6.8 3.9.4 1.8.8 3.7 1.3 5.5.3 1.2.7 2.3 1 3.5.1.5.3 1 .4 1.7-1 .1-1.9.1-2.9.2-.4-1.1-.9-2.3-1.3-3.4-.6-1.7-1.2-3.5-1.7-5.2l-.6-2.2-.6-2.2c-.2-.9-.5-1.7-.7-2.6-.4-1.4-.8-2.8-1.1-4.2-.5-2-.9-4-1.3-6s-.8-3.9-1.1-5.9l-.9-5.8c-.3-1.7-.5-3.3-.8-5-.1-.6-.1-1.2-.2-1.8l-.3-4.3-.3-4c0-.6-.1-1.1-.2-1.8 2.6.6 5 1.2 7.5 1.7v4.5c0 2.1.1 4.3.2 6.4l.3 5.9c-.2 1.1 0 2.3.2 3.6zm-.2 33.4c1-.2 2-.3 3-.3 1.4-.1 2.7-.3 4.1-.3 1.3 0 2.6.2 3.9.4v.3l-17.9 2.1v-.1c.7-.2 1.4-.5 2.1-.7 1.5-.6 3.2-1 4.8-1.4zm22.7-33v4.8c0 .4.1.9.1 1.3v3.2c0 .7-.1.7-.7.6-.1 0-.2-.1-.2 0-.7.5-1.4 0-2.1.2-.1 0-.1-.1-.2-.1.9-3.5 1.9-7 2.8-10.6h.2c.1.3.1.5.1.6zm.2 34.6c0 .4.1.9.1 1.3 0 .1-.1.3-.1.6-.9-.4-1.8-.7-2.6-1-.9-.4-1.9-.7-2.8-1-.1 0-.2 0-.3-.1-1.1-.4-1.3-.8-1.1-2l.9-6.2.6-3.5c0-.3 0-.5.2-.8 0 .2.1.5.1.7 0 .2-.1.4-.1.5.2.8.5.9 1.2.5.1 0 .1-.1.2-.1.2.1.4.3.6.4.2-.1.3-.2.5-.3.4.3.7.7 1.2.3h.3c.3.1.7.1 1.1.2v10.5zm1.3-2.5v-7.5c0-.3.1-.5.1-.8.7.4.9.4 1.3 0 .4.1.7.5 1.1 0 .1-.1.5 0 .8.1.3.1.3.4.2.7-.1.3-.1.7-.1 1.1v2.8c0 3.1.1 6.2 0 9.4 0 0 0 .1-.1.2-1-.4-2-.7-3.1-1.1-.3-.1-.3-.4-.3-.7.1-1.3.1-2.7.1-4.2zm2 6.3c1.7.6 3.4 1.2 5 1.9.3.1.7.2 1 .4.1.1.3.2.3.3 0 .1-.1.3-.2.3l-.9.3c-1.4.5-2.9.9-4.3 1.5-.6.2-1.1.1-1.6-.2l-8.4-4.8c-1.8-1-3.6-2.1-5.5-3.2 1.1-.2 2.1-.3 3.1-.5.7-.1 1.2 0 1.8.3l5.4 2.1c1.4.5 2.9 1.1 4.3 1.6zm6.5 4.1v3.7c-2.1.6-4.2 1.4-6.5 1.9v-1.6c0-.5.1-.9.1-1.4 0-.5.3-.7.6-.8 1.6-.6 3.3-1.1 4.9-1.7.3 0 .5 0 .9-.1zm-10.1 3.9c-.2-1.1.2-2.2-.4-3.2-.6.8-.2 1.7-.4 2.5-.8-.1-.9-.2-.9-.9v-1.9c0-.2-.1-.4-.3-.6-.3.8-.1 1.7-.2 2.6-.7 0-1-.2-1-.8v-1.9c0-.3 0-.5-.5-.5v2.4c-.8-.1-.8-.1-.8-.7v-1.9c0-.3-.1-.6-.5-.5-.3.8 0 1.6-.2 2.4-.5 0-.7-.2-.7-.7v-2.1c0-.4 0-.4-.6-.4v2.2c-1.1-.2-1.2-.3-1.2-1.3v-1.8c0-.3 0-.3-.5-.5v2.7c-.6-.2-.9-.4-.9-1v-1.9c0-.2-.1-.4-.1-.7-.5.4-.3.9-.4 1.3v1.3c-.5-.1-.8-.4-.8-.9 0-.7-.1-1.5-.1-2.2 0-.1-.1-.2-.2-.3-.1.1-.2.2-.2.3v2.3c-.4-.1-.6-.3-.6-.6v-3.2c.4.2.7.3 1 .5 1.6.9 3.2 1.9 4.8 2.8 2.2 1.3 4.3 2.5 6.5 3.8.6.3 1.1.6 1.7.9.4.2.6.5.6 1-.1 1-.1 2-.2 3.2-.4-.2-.7-.3-1-.5-.1-.1-.2-.4-.2-.6-.1-.9-.1-1.8-.2-2.7-.4-.1-.4 0-.4.3v1.8c0 .2 0 .4-.1.7-.4-.3-.7-.5-1-.7zm.5 1c0 .1-.1.1-.1.2-.2-.1-.5-.3-.7-.4 0-.1.1-.1.1-.2.2.1.4.3.7.4zm-1-.6c0 .1-.1.1-.1.2-.2-.1-.4-.2-.5-.3 0-.1.1-.1.1-.2.2.1.3.2.5.3zm-.7-.5c0 .1-.1.1-.1.2-.1-.1-.3-.2-.4-.3l-.3-.3c-.1 0-.2-.1-.3-.1-.1 0-.2-.1-.2-.1v-.1c.1 0 .2.1.3.1.1.1.2.1.3.2.1.1.2.2.4.3 0 0 .1.1.3.1zm-1.6-.9c0 .1 0 .1-.1.2-.1-.1-.3-.2-.4-.3-.3-.2-.6-.4-1-.6l-.2-.2c-.1 0-.2-.1-.3-.1-.1-.1-.2-.1-.3-.2-.1-.1-.3-.2-.4-.2 0-.1.1-.1.1-.2l.3.3c.1.1.2.1.3.2.1.1.2.1.3.2.1 0 .1.1.2.1.4 0 .7.2.9.6.3.1.4.1.6.2zm-3.5-2.1zm-.3-.1c-.1 0-.1 0-.2-.1 0 0 0-.1-.1-.1 0 0 .1 0 .1.1.2 0 .2.1.2.1zm-.4-.3h-.1c-.1 0-.2-.1-.3-.1-.1-.1-.3-.2-.4-.3l-.1-.1.1.1c.2.1.3.2.5.3.1.1.2.1.3.2-.1-.2-.1-.2 0-.1zm-1.3-.9v.1c-.1 0-.2-.1-.3-.1-.1 0-.2 0-.3-.1v-.1c.1 0 .2.1.2.1.2.1.3.1.4.1zm-.9-.3c0-.1-.1-.1-.1-.2h.1v.2zm-.4-.4s0 .1 0 0c-.1.1-.1.1-.2 0 0 0 0-.1.1-.1s.1.1.1.1zm-.4-.3s-.1 0-.1.1c0 0 0-.1-.1-.1 0 0 .1-.1.2 0 0-.1 0 0 0 0zm10.7 6.8l-.1-.1c.1 0 .2 0 .1.1.6.2 1.2.5 1.7.8.5.3 1 .4 1.6.1.7-.3 1.5-.5 2.2-.7.9-.3 1.9-.6 2.8-.9.3-.1.6-.1 1-.2v2.3c-.2 0-.4.1-.6.1h-4.3c-.7 0-1.4-.1-2.1-.2-.2 0-.5-.2-.7-.3-.5-.3-1-.7-1.6-1zm9.1 2s0 .1 0 0c-2.2.1-4.4.1-6.6.1v-.1h6.6zm.3-9.7c-1.3-.5-2.6-1-3.9-1.4-.2-1.6-.1-6.6.1-6.9.5 0 .9.1 1.3.1s.8.1 1.2.2h1.3c.2.7.2 5.7 0 8zm-5.6-31.4c0 .9 0 .9-.9.9-.7 0-1.4.1-2.1.2v-2.8-34.7c0-.5.2-.8.5-1.1.9-.9 1.7-1.9 2.6-3v1.3c-.1 13.1-.1 26.2-.1 39.2zm3.7-35.1v28.7c0 2 .1 4.1.1 6.1 0 .5-.2.7-.8.7v-.8-28.8c0-2.4-.1-4.9-.1-7.3 0-.2-.1-.3-.1-.5h-.2c-.1.5-.2 1.1-.2 1.6v26.9c0 2.7.1 5.3.1 8 0 1 0 1-1 .9h-.4c0-.7-.1-1.4-.1-2.1v-20.1-17.2-2.7c.9.5 1.8.9 2.7 1.4.1.1.2.2.3.2.9.2 1 .8 1 1.7v23.6c0 4.3.1 8.7.1 13v1.7c-.3.1-.6.3-.9.5-.1-12.3-.1-24.4-.2-36.7-.3.4-.3.8-.3 1.2zm1.5-52.5c-.2.4-.2.8-.1 1.2.1.4-.1.8-.1 1.1v10.8c0 2.4.1 4.8.1 7.2 0 .2 0 .4-.1.8h-6.5c-.1.4.1.4.3.4h6.3c.1 8.4.1 16.8 0 25.2-.3-.1-.5-.1-.7-.3-1-.5-1.9-1.1-2.9-1.6-.7-.4-1-.4-1.5.3-1.2 1.5-2.5 3-3.7 4.4-.4.4-.6.9-.6 1.5v8.5c-.3 0-.6.1-.9.1h-4.4c-1.7-.1-3.5-.4-5.2-.8-.2 0-.4-.3-.4-.5 0-.6-.3-.9-.9-.9-.1-.4-.2-.9-.1-1.2.2-1.2-.6-1.7-1.5-2.2-.6-.3-1.2-.4-1.9-.2-.4.1-.9.1-1.4.2-1.2.2-1.5.6-1.5 1.8v1.7H80c-.5-1.1-1-1.2-2.1-.6-.5.3-1.1 0-1.6-.1-2.7-.6-5.5-1.3-8.2-2-.2 0-.4-.1-.6-.2-.1-.4-.2-.6-.2-.9 0-.6-.3-.8-.8-.9-.8-.3-1.7-.4-2.3.4-.3.3-.6.3-.9.2-.9-.2-1.8-.5-2.8-.8v-.7-4.2c0-1.2 0-1.2-1.2-1.7-.8-.3-1.6-.4-2.4-.2-1.1.2-1.8.9-2.6 1.5-.2.1-.3.3-.5.4-.8.4-.8.4-1.4 1.1-.9-.4-1.7-.9-2.4-1.6-.1-.1-.2-.5-.1-.6.7-2 1.4-4.1 2.2-6.1.6-1.5 1.3-3 2-4.4.8-1.6 1.7-3.2 2.6-4.8a63 63 0 0 1 3-4.8c1-1.5 2.1-3 3.2-4.5 1.3-1.7 2.7-3.3 4.1-4.8 1.1-1.3 2.4-2.4 3.6-3.6 1.6-1.5 3.2-3 4.8-4.3 1.3-1.1 2.7-2.1 4.2-3.1 1.6-1.1 3.2-2.1 4.8-3.2 2.7-1.7 5.5-3.2 8.4-4.5 2.7-1.2 5.5-2.2 8.3-3.2 2.7-1 5.5-1.7 8.3-2.2 1.3-.2 2.6-.5 3.9-.8 0 .1.1.1.1.2l-1.2 2.1c-.6 1.1-1.3 2.1-1.9 3.2-.4.7-.8 1.5-1.2 2.2zm-58.9 49.6c.5 2.8.9 5.5 1.4 8.3.2 1.1.4 2.2.6 3.2 0 .1 0 .3-.1.4-.4-1.1-.9-2.2-1.2-3.3-.4-1.2-.9-2.3-1.8-3.1-.8-.7-.7-1.5-.7-2.3 0-.2.1-.3.1-.4-.1-1.5.6-2.7.8-4.1.9.1.8.8.9 1.3zm-1.5 6.3c.4.6.7 1.2 1.1 1.8.2.4.4.9.6 1.3.3.9.6 1.8.8 2.6.2.8-.2 1.2-1 1.1a6.94 6.94 0 0 1-2.3-.7c-.8-.3-1-.6-1-1.6.1-.9.3-1.9.4-2.9.1-.5-.1-1.1.3-1.6.3-.3.7-.5 1.1 0zm1.9 15v3.5h-.1v-3.5h.1zm-1.2-.2v4c0 .4 0 .7-.6.9.1-4 .2-7.8.4-11.8.4.3.4.6.3.9-.2 1.1-.2 2.2 0 3.3.1.7.2 1.4-.1 2.1v.6zm-1.2 1.3v3.8c0 .3 0 .6-.6.6.1-1.1-.2-2.2.3-3.2.2-.6.2-1.3.2-1.9 0-1.4-.1-2.7-.1-4.1v-2.2c0-.3 0-.6.4-.6 0 .1.1.2.1.3v2.7c0 .5-.3 1.1-.3 1.6v3zm-.9 9.4c0-.6.2-1.2.3-1.8h.2v5.7c-.4-.4-.5-.8-.5-1.2v-2.7zm6.4-6.3c-.4-.2-.4-.5-.4-1 .1-1.4-.1-2.9-.1-4.3v-2.2c0-.7-.1-1.5-.2-2.3 1.1 3.8 2.1 7.4 3.2 11.3-.9-.6-1.7-1.1-2.5-1.5zm5.8 23.2h.1c0 .1.1.2.1.4.3 1 .1 2 .2 3 0 1 .1 2.1.2 3.1 0 .2.1.4.2.6 0 .2.1.4.1.6-.3.6-.1 1.1 0 1.7.1.9.1 1.9.1 2.9l-.2.2c-.1-.7-.1-1.3-.2-1.9-.3-1.9 0-3.9-.4-5.9-.5-1.6-.2-3.2-.2-4.7zm1.1 14.3c.1 1.5.7 2.7.4 4.1-.6-.5-.6-.6-.6-1.3 0-.4-.1-.7-.2-1.1-.2-.5-.1-1.2.4-1.7zm.7-3c0-.1.1-.2.1-.3.2 1.8.5 3.6.7 5.4.1.7 0 1.4 0 2.2l-.1-.2c-.1-1.4-.2-2.9-.4-4.3 0-.5 0-.9-.2-1.4-.2-.4-.1-.9-.1-1.4zm1.7-6.8c-.1-.3-.1-.6-.2-.9-.5-1.4-.7-2.8-.8-4.2 0-.3.1-.6.1-.9.1-1-.2-1.4-1.2-1.6-.4-.1-.7-.1-1.1-.2-.7 0-.9-.2-1-.9-.3-1.5-.5-3-.8-4.5-.2-1.4-.6-2.8-.7-4.2-.1-1.4-.6-2.7-.8-4.1-.2-1.2-.5-2.5 0-3.9.2.6.4 1 .5 1.5.5 1.5 1.1 3.1 1.6 4.6.4 1 .7 2 1.1 3 .6 1.6 1.3 3.2 1.9 4.8.6 1.5 1.1 2.9 1.8 4.4 1 2.2 2 4.3 3 6.5.7 1.4 1.4 2.9 2.1 4.3.8 1.5 1.6 2.9 2.4 4.4.2.5.5.9.7 1.5-1.7.5-3.1 1.3-4.9 1.2-.4 0-.7-.2-.8-.6-.1-.3-.1-.6-.2-.9-.1-.3-.1-.5-.2-.7-.7-1.4-1.1-2.9-1.4-4.5-.1-.3-.1-.7-.3-1-.4-.9-.5-2-.8-3.1zm1 17.2c.9-.2 1.8-.4 2.7-.7.5-.2.9-.1 1.3.3.5.5 1.1 1 1.7 1.6-.1.1-.2.2-.3.2-1.3.3-2.7.6-4.1.6-.4 0-.6-.2-.8-.5-.3-.4-.6-.8-1-1.2.2-.1.3-.2.5-.3zm17.6 10.3v6.3c-2.2-1.4-4.2-2.9-6.3-4.6 2.2-.5 4.2-1.1 6.3-1.7zm32.8 16.6c-.7-.5-1.4-.9-2.1-1.4l-1.5-.9c-1.5-.7-3-1.4-4.4-2.2-.9-.5-1.7-1.1-2.5-1.7-2.1-1.4-4.2-2.9-6.4-4-1-.5-1.7-1.3-2.5-2.1-.7-.6-1.3-1.2-2.1-1.7-.9-.6-1.7-1.3-2.6-2-.6-.5-1.2-1-1.8-1.3-.9-.5-1.7-1.1-2.5-1.7-1.2-.9-2.4-1.7-3.6-2.6l-.1-.1-.3-.3.2-.2c0 .1.1.2.1.4.7.4 1.4.8 2.2 1.2.4.2.8.5 1.3.7 1.4.5 2.5 1.3 3.4 2.4.9.9 1.9 1.6 2.8 2.5 1.2 1.2 2.7 1.9 4.2 2.7.2.1.3.2.5.2.7.3 1.3.6 1.9 1.2.5.6 1.2 1 1.7 1.5.3.3.6.7 1 1 .5.4.9.7 1.5.9 1.1.5 2.1.9 3.2 1.2.7.2 1.4.5 2 .9.5.3 1.1.5 1.7.7.1.1.3.1.4.2.9 1 2 1.8 3.2 2.4.2.1.3.3.4.4.8.8 1.7 1.3 2.8 1.5 1.6.3 3.1.8 4.2 2.1.3.3.7.5 1.1.9-.4.1-.8 0-1.3 0-1.6.1-2.9-.5-4.1-1.5-.5-.4-1.3-.9-2-1.3zm4.6-1.3c-1.1-.4-2.3-.8-3.4-1.3-.6-.3-1.1-.7-1.6-1.1-.8-.6-1.6-1.4-2.5-1.9-1-.6-2.1-1.2-3.3-1.6-.5-.1-.9-.5-1.2-.9-.8-.9-1.9-1.4-3-1.6-1.1-.2-1.9-.8-2.6-1.6-1-1.1-2.1-2.1-3.7-2.4-.7-.1-1.4-.5-1.9-1.1-.2-.2-.4-.4-.6-.5-2.2-1.1-3.9-2.8-5.8-4.3l-1.2-.9-2-1.4-1.5-.9c-.2-.1-.3-.2-.5-.3.6-.2 1.2-.2 1.7.2.9.6 1.8 1.3 2.8 1.8 1.4.8 2.5 1.8 3.7 2.8.7.6 1.5 1.1 2.4 1.4.4.1.8.3 1.1.6.8.8 1.8 1.3 2.8 1.9.3.2.5.4.8.6.2.1.4.3.7.3.8.1 1.3.5 1.9 1 1.1 1 2.4 1.7 3.9 2 .6.1 1.2.5 1.6.9 1.4 1.4 3.1 2.4 4.9 3 .8.3 1.5.7 2 1.3.7.9 1.8 1.4 2.9 1.5 2 .3 3.8 1 5.2 2.5 1 1 2.3 1.5 3.7 1.8.4.1.7.1 1.1.2.3.1.6.2.9.4l1.8 1.2.3.3c-.8.1-1.4.2-2.1.2-.5 0-.9 0-1.3-.4-.1-.2-.4-.2-.6-.3-1.4-.2-2.6-1-3.7-1.9-1.4-.4-2.5-1-3.7-1.5zm10 .9c-2.2-1.7-4.7-2.8-7.3-3.5-.9-.3-1.9-.5-2.8-.9-.8-.4-1.7-.8-2.4-1.4-.9-.7-2-1-3-1.6-.3-.2-.7-.3-1-.5l-4.5-2.7c-.8-.5-1.7-.9-2.7-1.1-.2 0-.4-.1-.6-.2-.7-.4-1.4-.7-2-1.1-.4-.2-.8-.5-1.1-.7 0-.1.1-.1.1-.2.6-.1 1.3-.1 1.8.4.1.1.2.2.3.2l4.2 1.5c.8.3 1.6.7 2.4 1l.9.3c.6.3 1.1.5 1.6.8 1 .6 1.9 1.3 3.1 1.6.1 0 .3.1.4.2 1 .5 2.1.8 3.1 1 .5.1 1.1.4 1.6.6.5.2 1 .6 1.5.8 1.2.5 2.5.8 3.6 1.4 2.3 1.2 4.7 1.6 7.2 2.1 1.3.3 2.4 1 3.5 1.7 1.8 1 3.7 1.8 5.8 2-.6.2-1.3.4-1.9.5-1.5.3-3 .5-4.5.7-.3 0-.6 0-.8-.1-1-.3-2-.7-3.1-1-1.3-.5-2.4-1-3.4-1.8zm1.2-117.2s0-.1 0 0c0-.1 0 0 0 0zm.9 62.9v-8.7-4.5c0-.1-.1-.2-.1-.3 0-.4-.1-.8-.1-1.1v-.2-.8-7-.3-.5-1.3-3.8-31.3-3c.2.2.4.1.5-.2l4-3.4c.3-.2.5-.4.9-.7V186.3c0 7.8.1 15.6.2 23.6-.7-.2-1.1.3-1.7.1-.5-.2-.6-.3-.5-.8.1-.4 0-.8 0-1.1.1-.6-.3-1.2.2-1.8v-.3c-.4-.7-.2-1.4-.2-2.1 0-.6-.2-1.2-.4-1.8-.1-.2-.5-.4-.7-.4-.6.1-1.2.2-1.8.4-.5.1-.3-.3-.3-.6zm2.5 20.7c.4.1.7-.1.9-.3.2-.3.4-.6.1-.9-.3-.3-.4-.7-.1-1 0-.1.1-.2.1-.2-.6-.6 0-1.4-.2-2.1-.1-.3 0-.8 0-1.2 0-.6.1-1.2.1-1.8v-.6c0-.6-.1-1.3-.1-1.9 0-.1.1-.2.2-.5h1.6c.1 0 .3-.1.4-.2.3-.2.5-.2.8-.1.1 0 .3 0 .4-.1.3-.1.5-.2.8-.1.1.1.4 0 .5 0 .3-.1.7-.2 1 0h.1c.6-.2 1.2-.2 1.8-.1.3.1.6 0 .9 0 .4 0 .8-.1 1.3-.2.4.2.9.3 1.4-.2.1-.1.2 0 .3 0 .1 0 .3.1.4 0 .6-.4 1.4-.1 2.1-.4.2-.1.4 0 .6-.1.2 0 .4 0 .7-.1.1 0 .2-.1.2-.1.6.2 1.1.1 1.6 0 .8-.1 1.6-.1 2.4-.2.5 0 .9.1 1.5.1.1.4.1.8.2 1.2-1-.1-2-.1-2.9-.2-.5 0-1 0-1.6.5 1.1 1.1 2.4 1.8 3.7 2.6-1.2.4-2.3.8-3.3 1.3s-2.3.5-3.1 1.7c1.3.4 2.4.8 3.7 1.2-.6.6-1.3.9-1.9 1.4-.8.6-1.5 1.3-2.2 2-.3.3-.1.7.3.7.2 0 .5 0 .7-.1 1.2-.2 2.4-.5 3.6-.7h.8c-.3.8-.6 1.5-.9 2.2l-1.2 3c-.2.6-.1 1.1.2 1.3.5.2.8-.3 1.1-.5.6-.6 1.1-1.3 1.8-2v.7l-.3 4.2c0 .4-.1.8.4.9.4.1.8 0 1-.4 0-.1.1-.1.2-.2-.1.7-.2 1.2-.3 1.8 0 .2.1.5.1.8-.5-.2-.9-.7-1.4-.4 0 0-.1-.1-.1-.2-.1-.1-.3-.3-.4-.3-.8 0-1.5-.3-2.3-.3-.2 0-.3 0-.5-.1-.7-.2-1.4-.1-2-.5-.1-.1-.5.1-.8.2-.4-.4-.8-.5-1.4-.4-.1 0-.3 0-.4-.1-.1 0-.2-.1-.3-.1-.7 0-1.3 0-1.9-.4-.1-.1-.4.2-.6.3-.4-.3-.8-.7-1.4-.5-.1 0-.3 0-.4-.1-.3-.3-.7-.4-1.1-.3-.1 0-.3-.1-.4-.1-.1 0-.3-.2-.3-.1-.7.2-1.5-.2-2.2-.1h-.1c-.5-.4-1.2-.3-1.7-.6h-.1c-.2-.1-.4-.3-.5-.2-.8.4-1.4-.7-2.1-.3-.3-.4-.7-.7-1.3-.5-.1 0-.3-.1-.4-.1-.3-.1-.7-.2-1.1-.3-.1-.4-.5-.9-.1-1.5.1-.1-.1-.3-.1-.5 0-.8-.1-1.6-.1-2.4 0-.3 0-.6-.1-.8-.1-.8.3-1.1 1-.9.1 0 .2.1.4.1.7 0 1.4 0 2.1.1-.2.1 0 .2.2.3zm20.1-38c-.5-.4-1.1-.7-1.3-1.4.4-.1.8.1 1.1.3.4.2.8.4 1.2.5.2.1.5-.1.7-.2.1-.1 0-.4-.1-.6-.2-.4-.5-.6-.7-1-.4-.6-.7-1.2-.6-2.1.4.2.8.4 1.2.7.3.2.6.5 1 .7.7.4 1.2.2 1.3-.6.1-.6.2-1.2.3-1.7 0-.1.1-.2.2-.4.9.6.5 1.7 1 2.4.8-.1 1-.4 1.2-1.1.1-.6.1-1.2.6-1.7.1.2.1.4.1.5v2.3c0 .7.4.9 1 .5.5-.3.8-.7 1.3-1.1.3-.3.7-.5 1.2-.9.3 1-.4 1.4-.8 1.9.3.5.5.6 1.1.5.7-.2 1.3-.4 2-.5h.6c-.5.8-1.7.8-1.9 1.9.5.8 1.7.4 2.3 1.2-.5.1-.9.3-1.3.4-.3.1-.7.2-.7.5 0 .2.2.6.4.7.5.4 1 .7 1.5 1 .4.3.7.6 1 1.1h-1.9c-.5 0-.5-.1-1.1.3.1.5.4.9.8 1.1 1 .6 1.7 1.4 2.2 2.5-1-.4-1.9-.8-2.9-1.2-.6.5-.6.6-.1 1.1.6.6 1.2 1.1 1.4 2-.5-.1-.9-.4-1.2-.7-.4-.3-.8-.7-1.3-1-.4-.2-.7-.1-1 .2.3 1.1 1.4 1.7 2.1 2.6-.7 0-1.1-.3-1.6-.5-.4-.2-.7-.2-1 .4.4.4.8.8 1.3 1.2 0 .1-.1.1-.1.2-.5-.1-.9-.1-1.5-.2.2.8.6 1.3.9 1.9.1.2.2.5.2.7.1.4.2.8.3 1.3-.3 0-.4 0-.4-.1-.5-.8-1.1-1.5-1.6-2.3-.3-.5-.6-.9-1.4-.6l-.9 3.3h-.2v-1.4c0-.3 0-.6-.3-.6-.2 0-.5 0-.7.2-.4.5-.8 1-1.2 1.6v.1c-.2.1-.4.1-.8.2.1-.6.2-1 .3-1.5v-.3l.1-.1c0-.2 0-.4.1-.6 0-.1.1-.1.1-.2l.3-1.1c.1-.2.3-.4.3-.6.1-.2.1-.5 0-.6-.2-.1-.4-.1-.7-.1-.5.2-.9.4-1.4.6l-.6.3c-.3.1-.5.1-1 .2.1-.4.1-.6.2-.9.1-.2.1-.4.3-.6.2-.3.4-.7.1-.9-.2-.2-.7-.2-1-.2-.7.2-1.4.5-2.1.7 0-.6.3-1 .6-1.3.5-.6 1-1.1 1.4-1.7.3-.4.3-.7-.3-.7-.4 0-.7.1-1.1.1-.3.1-.7.1-1 .2 0-.1-.1-.1-.1-.2.6-.6 1.1-1.3 1.7-1.9.6-.6.6-.8-.2-1.1-.9-.3-1.7-.4-2.6-.6-.2 0-.4-.1-.5-.2v-.2l1.8-.9c.7-.3 1.4-.4 2.1-.7.2-.1.5-.3.6-.5.2-.1-.1-.3-.3-.5zm22.7 3.5c-.5-.6-1.1-1.1-1.6-1.7-.2-.2-.3-.4-.4-.6 0-.1.1-.1.1-.2l1.2.3c.6.2 1.2.5 1.8.8.1.1.3.1.4.2.3.1.7.1.9-.2.1-.2 0-.5-.1-.8-.5-1.1-1-2.3-1.5-3.4 0-.1 0-.2-.1-.4.4.2.8.3 1.1.6.6.6 1.3.9 1.7 1.7 0 .1.1.1.2.2.2.3.5.6.8.3.3-.2.5-.5.4-1-.1-.9-.2-1.9-.2-2.8.6.5.9 1.2 1.2 1.9.2.5.5.9 1.2 1.1.6-.9 1.2-1.8 1.7-2.7.1 0 .1 0 .2.1-.1.8-.1 1.7-.2 2.5s.2 1.1 1 .9h.4c.1.3.1.7.3.9.2.2.6.1.9.1.6-.1 1.1-.3 1.7-.4.3-.1.6 0 1.1 0-.5.6-.8 1-1.2 1.5-.1.2-.3.3-.4.5-.2.5 0 .8.4.9.4.1.9.1 1.3.2.6.1 1.1.2 1.9.4-.9.8-1.8 1-2.7 1.4-.2.1-.5.1-.7.3-.4.2-.4.7-.1 1 .2.2.5.3.7.5.4.3.7.6 1.1.9 0 .1-.1.1-.1.2-.5-.2-1-.4-1.4-.6-.3-.1-.5-.2-.8-.2-.2 0-.5.2-.5.3 0 .2.1.5.2.6.6.5 1.3.9 1.9 1.4l.9.9c0 .1-.1.1-.1.2-.7-.3-1.5-.5-2.2-.8l-.6-.3c-.2-.1-.4-.1-.6-.2h-.3c-.1 0-.2 0-.3.1-.2.1-.5.2-.2.5v.3h.1l.1.1c.1.3.1.7.2 1-.1 0-.1 0-.2-.1-.2-.1-.3-.2-.5-.3l-.6-.3-.3-.3c-.2 0-.5-.2-.6.2-.6.3-.1.6 0 .8v.1c0 .2.1.3.1.5s0 .4-.3.4v-.1c0-.1-.1-.1-.1-.2l-.3-.3c-.2-.1-.4-.3-.6-.4l-.9.3c.1.3.1.5.1.6v.5c0 .3-.1.5-.1.8v.8c0 .1-.1.2-.1.3-.5-.3-.5-.8-.5-1.3s-.1-.9-.5-1.3c-.4-.3-.5-.3-.9.1-.5.6-.5 1.3-.8 2-.1.2-.2.5-.3.8-.3-.7 0-1.1.1-2.1 0-.4.3-.8-.2-1-.4-.2-.7.1-1 .6-.3.5-.5 1-.8 1.5-.1.1-.2.3-.4.4 0-.6.1-1.2.1-1.7v-.4c.1-.1.2-.2.3-.4v-.4c0-.1.1-.1.1-.2v-.3c0-.1.1-.2.1-.3l.3-.3c0-.2.1-.3.1-.5v-.5c-.4-.4-.8-.1-1.3-.1s-1 .1-1.6.1l-1.2.3c-.2-.1-.4-.2-.7-.3.3-.3.6-.5.9-.8.4-.2.7-.5 1.1-.8.1-.1 0-.2.1-.4l-.1-.1v-.1c.3 0 .3-.2.1-.3-.1-.1-.3-.1-.5-.2-.6-.4-1.3-.7-1.9-1.1-.1-.1-.3-.2-.4-.3.7-.7 1.6-.6 2.4-.8.2 0 .4 0 .5-.1.8-.5.9-1.1.5-1.5zm12.9 17.6c.2-.1.6-.2.7-.3.3-.3.4-.8.7-1.1a4 4 0 0 1 1.9-1.5c-.3.7-.7 1.4-1.3 1.9-.1.1-.2.1-.2.2-.1.2-.2.4-.1.6 0 .1.3.2.5.2s.4-.1.7-.1c1-.2 2-.4 2.9-.6.1 0 .1 0 .3.1-.2.1-.3.3-.4.3-.7.2-1.4.4-2.1.7-.2.1-.5.2-.6.4-.1.3.2.5.5.6.6.2 1.2.3 1.8.6.4.2.7.5 1.1.7 0 .1-.1.1-.1.2-.3 0-.6-.1-.9-.2-.4-.1-.8-.3-1.2-.4-.3-.1-.6-.1-.7.2-.1.2 0 .5 0 .7 0 .1.2.2.3.3.9.4 1.2 1.2 1.4 2.2-.3-.3-.7-.5-1-.8-.2-.1-.3-.3-.5-.5-.6-.6-.9-.5-1.4.2 1.1 1.2 1.7 2.7 1.6 4.6-.4-.5-.7-1-1-1.4-.2-.4-.4-.9-.7-1.2-.2-.2-.6-.3-.8-.2-.3 0-.4.3-.3.7.1.7.2 1.5.2 2.2 0 .4-.1.8-.1 1.2-.6-.6-.8-1.2-.9-2v-.4c0-.8-.1-.9-1-.8-.1.2-.2.5-.3.9 0-.2-.1-.4-.1-.5 0-.1.1-.3 0-.4-.1-.4-.1-.9-.5-1.1-.5-.2-.7.2-1 .4-.1.1-.2.2-.4.3.1-.8-.1-1.1-.9-.9-1.2.4-2.4.2-3.6.3-.3 0-.7.1-1 .2-.2 0-.3 0-.5.1 0-.1 0-.1-.1-.2.6-.4 1.2-.9 1.8-1.2.6-.3 1.3-.5 1.9-.7.2-.1.5-.3.4-.4 0-.2-.2-.4-.4-.5-.7-.4-1.6-.4-2.4-.7-.5-.1-1-.3-1.4-.5v-.2c.2-.1.4-.2.7-.2.8-.2 1.5-.3 2.3-.5.5-.1.7-.5.6-1-.2-.6-.4-1.3-.8-1.8-.2-.3-.3-.6-.2-1h.9c.3 0 .6.1.9.1h.3c.2 0 .4.1.6.1h.6c.1 0 .1-.1.2-.1.3 0 .3-.2.3-.5.1-.1.1-.2.2-.3.3 0 .3.3.3.5l.3 2c0 .2.4.4.6.4.1 0 .4-.2.5-.4.2-.5.2-.9.4-1.4.1-.3.3-.6.5-1 .2.6.2 1 0 1.5-.1.2-.3.5-.3.7 0 .2.2.4.3.7zm-8.4 10.1h.2l.2.2c-.1 0-.3.1-.4.1-.6.3-1.1.7-1.6 1-.8.4-.8.6 0 1.2 0 0 .1.1.1.2-.5.5-1.5.4-1.4 1.4-.6.3-1.3.5-1.3 1.4-.4.1-.8.3-1.1.4-.1-.4-.2-.9-.2-1.3 0-.2 0-.4.1-.5.3-.4.2-.7.1-1.2-.1-.4-.1-.7-.1-1.1 0-.3-.1-.5-.1-.9.4-.1.5-.3.6-.7 0-.7-.2-1.4-.5-2-.2-.3-.3-.5 0-.8.4-.6.1-1.1 0-1.7-.2-.9.1-1.5 1-1.8.5-.1.9-.4 1.4-.3.2 0 .5-.3.6-.6.2-.3.3-.3.6-.2.9.4 1.7.7 2.6 1.1-.1.1-.3.3-.5.4-.8.6-1.6 1.2-2.5 1.7-.2.1-.5.2-.8.3-.3.1-.6.2-.6.6 0 .4.3.5.6.6 1.1.2 2.3.3 3.4-.1.4-.1.8-.2 1.5-.3-.3.4-.4.6-.7.8-.4.4-.9.7-1.4 1-.3.2-.4.3-.4.7 0 .4.3.4.6.4zm2.9-14.9c.1-.3.1-.5.1-.8 0-.1.1-.2.1-.4-.1-.5.2-.7.6-.7.5.5 1 1.1 1.5 1.6l-.3 1.2-.3.6h-1.6c-.2 0-.4-.1-.6-.1 0 0-.1-.1-.1 0 .1-.1.1-.2.2-.3.4-.3.3-.8.4-1.1zm-2.4 3.6c.1.1.4.1.4.2.7 1.1.5 1.6-.9 1.8-.2 0-.4 0-.7.1.1-1 .5-1.8 1.2-2.1zm5.5-5.7s-.1 0-.1.1c0-.1.1-.1.1-.1zm-12.3-3.4c.2-.2.2-.2.6-.1-.3-.1-.4 0-.6.1zm.5 3.6h.6c.1.1.2.1.3.2 0 .7.1 1.4.1 2.1 0 .3-.1.6-.1.9-.6.2-1.1.6-1.6 1.1-.4.5-1.1.9-1.8.9-.5 0-.9.2-1.2.4-1 .8-1.2.7-2.3.3-1.5-.6-2.3-1.8-3.2-3-.6-.7-.6-1.5-.8-2.3 0-.1.1-.3.1-.4.5 0 .9-.1 1.4-.1 2.9-.1 5.7-.1 8.5-.1zm-19.5.2c-.1.8-.3 1.5-.4 2.3-.1.4-.1.8-.1 1.2 0 .3.1.5.5.5h.3c.2-.1.3-.2.5-.3.4-.3.7-.7 1.1-1 .2-.3.4-.5.6-.8.3-.3.5-.1.5.2v2.7c0 .4 0 .7.5.9.3.1.6-.1.8-.5 1 1.3 2 2.6 3.1 4-.7.8-1.3 1.6-2.1 2.6-.2-.9-.3-1.7-.5-2.5-.1-.3-.2-.5-.3-.8-.3-.4-.7-.3-.8.1-.3.7-.5 1.5-.7 2.3-.2.7-.2 1.3-.4 2.1h-.6c-.6 0-.9-.3-.7-.9.1-.2.1-.4 0-.6-.1-.1 0-.4 0-.6.1-.8-.1-1.1-.9-1-.4 0-.8.1-1.2-.1h-.3c-.8.3-1.7.2-2.5.3-.7.1-1.4-.3-2.1.2h-.2c-.9-.3-1.7 0-2.6.2-.1-.1-.1-.2-.2-.3v-.3-6.2-.5-.3-.3-2.3c2.8-.3 5.7-.3 8.7-.3zM168 214c-.9 0-1.7-.1-2.6-.1.7-.9 1.4-1.7 2.2-2.6h.4c-.2.9-.8 1.8 0 2.7zm-.4 6.4c-.1.1-.2.3-.2.4-.1.1-.1.3-.2.4l-1.2-1.5c.5 0 .8-.1 1.2-.1.3 0 .6.4.4.8zm-2-3.8c.7-.3 1.3-.6 1.8-.8.5.6.4 1.2-.1 1.8-.5-.4-1-.7-1.7-1zm1.3 6l.6-.6c.1 0 .1.1.2.1 0 .3-.1.7-.1 1-.1.3-.2.7.2 1 .1.1.1.2.1.3 0 .6-.1 1.3-.1 2.1-.2-.2-.4-.3-.5-.4-.2-.2-.4-.4-.6-.5-.2-.2-.3-.3-.4-.7 0-.6-.5-1.1-.8-1.6-.2-.3-.4-.7-.6-1.1.7.2 1.5.3 2 .4zm-3.6-11.2c.2-.8.3-1.6.5-2.3h.8c.1 0 .2 0 .3.1.6.4 1.2.7 1.7 1.1-1 .3-2.1.7-3.3 1.1zm1.7.7c0 .1.1.1.1.2l-1.2 1.2-.6.6c-.5.6-.3 1 .5 1.1.2 0 .5 0 .7-.1h.9c-.7.7-1.6.7-2.4 1.1-.1.7.2 1.1.9 1.1s1.3.2 1.8.5l.3.3c-.9.3-1.6.1-2.4-.1-.8-.1-.8-.1-1.2.7.6.9 1.8 1.1 2.5 2-.4-.2-.9-.3-1.3-.5s-.7-.3-1.1-.1c-.4.3-.3.7-.2 1 0 0 0 .1-.1.2-.2-.2-.4-.4-.7-.5-.5-.4-.8-.3-1 .3-.2.6-.3 1.2-.4 2-.1-.5-.2-.8-.2-1.1v-.8c0-.4 0-.8-.5-.9-.2-.1-.7.4-.7.8-.1 1-.2 2-.4 3 0 .4-.1.8-.2 1.1-.1 0-.2.1-.2.1-.9-.2-1-.1-1.4.7-.4.8-.9 1.6-1.3 2.4h-.2v-.8c.1-1.1.3-2.1.4-3.2v-.3c0-.3.1-.6-.3-.7-.3-.1-.6.1-.8.3-.6.6-1.1 1.2-1.8 1.8.1-.2.1-.5.2-.7.6-1.1 1.2-2.3 1.4-3.5.1-.7 0-.9-.8-.8l-3.3.6c-.1 0-.2 0-.4-.1l2-1.4c.5-.4 1.1-.7 1.6-1 .1-.1.2-.4.2-.6-.1-.2-.3-.3-.5-.4-.8-.2-1.7-.4-2.6-.5-.1 0-.1-.1-.2-.2l1.2-.6c1.1-.4 2.1-.8 3.2-1.1.4-.1.9-.1 1.3-.2.2-.1.4-.2.5-.4 0-.1-.1-.4-.3-.5-.6-.4-1.2-.7-1.8-1-.2-.1-.5-.3-.7-.6h.5c1.2 0 2.4.1 3.6.1.6 0 .7-.1.9-.7.1-.4.2-.8.4-1.2 0-.1.2-.2.3-.3.1.5.2.9.2 1.4.1.6.4.7.9.4.3-.2.5-.5.7-.7.2-.2.5-.3.7-.5-.1.4-.2.8-.3 1.3 0 .3-.2.7.2 1 1.5-.5 2.5-.8 3.4-1.2zm-2.8-1.2v-.2.2zm-16.6-67.6v.3c0 .2-.1.4-.1.5v12.5c0 .3 0 .7.1 1v47.7c0 .1 0 .2.1.3 0 1 0 2-.1 2.9 0 .2-.1.4-.1.6-.6-.3-1.2-.1-1.6.3-.4-.1-.5-.4-.5-.7V206v-22.2-36.9c0-.3.2-.8-.4-.9v63c-.2.1-.3.2-.4.3-.4.2-.6.1-.7-.3v-.6V188c0-1-.1-2-.1-3.1 0-.5.1-.9.1-1.4 0-.8-.1-1.7-.1-2.5v-35.5-1.1c-.5-.1-.5.2-.5.5v58.5c0 1.7.1 3.5.1 5.2 0 .3 0 .7-.4.9-.9-.3-.9-.3-.9-1.1v-32.7c0-2.3-.1-4.6-.1-6.9 0-1.5.1-3 .1-4.5 0-7-.1-13.9-.1-20.9 0-.2 0-.4-.2-.7-.1.1-.2.2-.3.4v40.6c0 7.5.1 15 .1 22.6v3.3c-.6-.2-1.1-.3-1.5.1-.1 0-.3-.1-.5-.3-.1-.1 0-.3 0-.5v-5.5-22.8V135v-.6c.2.2.4.3.5.4 1.4 1.4 2.8 2.7 4.2 4.1 1.1 1 2.1 2 3.2 3 .1.7.1 1 .1 1.4zm60.6 36.2h-2.5c-.3-.1-.5-.3-.8-.3-1.2 0-2.1-.7-3.2-1.1l-.9-.3c-1-.1-2-.2-2.9-.7-.9-.5-1.8-1-2.9-.3-.1-.4-.1-.6-.2-.9 0-.2-.1-.4-.1-.6.2-.3.1-.5-.2-.8-.6.1-1.1.2-1.7.2-.1.1-.2.2-.3.2-1.5.1-3 .2-4.6.1-1 0-2-.3-3-.5 0 0 0-.1-.1-.2 1.1-.2 2.2-.4 3.2-.5 1.1-.2 2.2-.3 3.4-.4h.9c.7 0 1.4.1 2-.3l.4-.4c-.2-.1-.3-.2-.5-.2h-.1c-.1 0-.3.1-.4.1h-1.6c-.4.1-.9.3-1.3.3-2.2.3-4.3.5-6.5.8-.4.1-.8.1-1.2.2-.9.3-1.8.1-2.6-.4-.2-.1-.4-.2-.6-.2-.1 0-.2-.1-.3-.1-.3-.1-.6-.3-1-.5 1-.2 2-.5 2.9-.7 2.1-.6 4.2-1.1 6.3-1.7.7-.2 1.5-.4 2.2-.5h.2c.1 0 .2-.1.3-.1h.1l2.7-.5c0-.2 0-.3.1-.5 0-.1-.1-.1-.1-.2l-2.7.6c-.5.1-1 .3-1.5.4-2.4.6-4.8 1.3-7.2 1.9-1.1.3-2.2.5-3.3.8-.1 0-.2.2-.3.3-1.2.2-2.3.5-3.5.2-.2 0-.5 0-.7.1-1.3.5-2.7 1-4 1.4-.2.1-.5 0-.7 0-.5.1-1.1 0-1.5.3-.5.2-1.1.3-1.5.1-.9-.5-1.7 0-2.5.2-.9.3-1.9.6-2.8.8-.8.2-1.7.2-2.5.5-1.1.3-2.1.8-3.1 1.1-2.3.7-4.5 1.2-6.8 1.8h-.4c0-.2 0-.4-.1-.6 0-.2 0-.4.1-.7v-.4V160v-3.2c.2.1.2.2.3.4.2 1 .3 2 .5 3 0 .3.1.5.6.4-.2-1.8-.3-3.5-.9-5.2h-.5v-12.5c0-.4-.1-.8-.1-1.1-.1-.1-.1-.2-.2-.2-.6-.6-1.2-1.3-1.8-1.9l-.1-.1-.3-.3-2.2-2.1c-.3-.3-.7-.6-1-1l-.4-.4c-.5-.5-1.1-1-1.6-1.5-.5-.4-.9-.9-1.4-1.3-.5-.4-.6-.5-1.1-.1-.3.3-.7.6-1 .9l-4 3.4c-.1.1-.2.1-.5.3-.1-2.2 0-4.4 0-6.5h.7c1.3-.1 2.6-.1 3.8-.1.8 0 1.6.2 2.4.1 8.7-.3 17.4.1 26.1-.2 7.1-.2 14.1 0 21.2-.1 1 0 2-.1 3-.1.5 0 .8.1 1.1.5 1.3 1.9 2.7 3.7 4 5.6 1.4 2 2.7 4.1 3.8 6.4.7 1.3 1.4 2.6 2 3.9 1 2.2 1.8 4.4 2.7 6.6 1.1 2.9 1.9 5.8 2.6 8.9.4 1.7.8 3.5 1.1 5.2.3 1.8.4 3.6.7 5.3.3 2.1.3 4.3.3 6.4.1-.2.1 0 .1.1zM187.3 130h-15.9c-7.8 0-15.6.1-23.4.1-3.4 0-6.8 0-10.2.1-2.3 0-4.5.1-6.9.1v-.8-13.4-2.5c0-1.1-.1-2.2-.2-3.3 0-.1-.1-.2-.1-.2.4-.9-.2-1.5-.6-2.2-1.1-2-2.3-4.1-3.5-6.1-.2-.4-.5-.7-.8-1.3h2.2c.8 0 1.6.1 2.5.1 1.4.1 2.8.1 4.2.3 2.1.3 4.2.5 6.3 1 4.5.9 8.9 2 13.2 3.6 1.5.6 3 1.2 4.5 1.9 1.9.9 3.8 1.8 5.7 2.8 1.7.9 3.4 1.9 5.1 3 2.6 1.6 5.2 3.4 7.5 5.4 1.5 1.3 3 2.6 4.4 4 1.3 1.2 2.5 2.5 3.8 3.7 1 1 1.9 2.2 2.9 3.2.1.1.1.2.3.5h-1zM122 205.1c.1.1.4-.1.6-.1.1 0 .3-.1.4 0 .6.4 1.1.2 1.6-.3.6.2 1.1.3 1.5-.4.6.2 1 .2 1.5 0s1.1-.1 1.7-.1c.1 0 .2.1.2 0 .7-.4 1.5 0 2.2-.5.2-.1.6 0 1 0 0 .9-.1 1.8.1 2.7.1 1.1-.1 2.1.2 3.2.2.6-.1 1.3-.1 2 0 .5 0 1-.1 1.4-.1 1.1 0 2.1.1 3.2.1.6-.1 1.2-.1 1.8 0 .8.1 1.6.1 2.4-.5 0-1.1.2-1.7-.1-.2-.1-.6.1-.9 0-.9-.1-1.9-.2-2.8-.4h-.7c-.1 0-.3.1-.4 0-.4-.3-.8-.3-1.2-.1-.1 0-.2.1-.3.1-.9-.4-1.8-.1-2.7-.2-.9-.1-1.8-.2-2.6-.1-.7 0-1.4-.3-2.1-.2-.8.1-1.5-.5-2.2-.2-.4-.4-.9-.2-1.4-.3-.4-.1-.8-.2-1.3 0-.1 0-.2-.1-.4-.1-.1-.1-.3-.2-.4-.2-.6 0-1.2.1-1.8.1-.1 0-.2.1-.2 0-.5-.5-1.3-.2-1.8-.2-.6 0-1.2-.2-1.9-.1h-.4c0-.6.1-1.2.1-1.7v-1.6c0-1.1-.1-2.1.1-3.1.1-.4 0-.9 0-1.3 0-.8-.1-1.7-.2-2.5v-1.3c0-.1.3-.3.4-.2.9.2 1.7-.1 2.6-.2.2 0 .4-.1.5 0 .4 0 .8 0 1-.4.4.2.8.5 1.2.1.1-.1.3 0 .4 0 .7 0 1.3-.3 2-.1.6-.6 1.4-.2 2.2-.5.5-.2 1.1.1 1.7-.1.7-.2 1.4 0 2.1-.1.8-.2 1.4-.7 2.2-.3zm-4.2-108.4c.4-.7.9-1.5 1.4-2.2h.2c0 .9.1 1.9.1 2.8v78.9c0 7.4.1 14.7.1 22.1v5.4c-1 .2-1.9.4-2.9.3-.5.4-1.1.1-1.6.1-.3 0-.5.3-.9.5.1-.6-.3-1 0-1.6.2-.4 0-.9 0-1.4v-2c0-.7-.1-1.3-.3-2l.3-.6c.1-.4 0-.7-.4-.9-.3-.2-.6-.3-.9 0-.2.2-.4.4-.8.2-.2-.1-.5.2-.9.3-.7-.2-.7-.2-.7-1.1v-11.7c-.1-15-.1-29.9-.2-44.9 0-9.2-.1-18.3-.2-27.5 0-.5.1-.9 0-1.4-.1-.8.3-1.4.7-2 .6-1 1.3-2 1.9-3.1 1.1-1.9 2.3-3.8 3.4-5.7.6-.7 1.1-1.6 1.7-2.5zm93.7 87.3c0 1-.2 1.9-.3 2.9l-.3 2.7c-.2 1.7-.4 3.3-.7 5-.4 2.1-.8 4.2-1.4 6.3-.7 2.5-1.4 5.1-2.3 7.5-1.1 3-2.3 5.9-3.8 8.7-1 1.9-2 3.9-3.1 5.8-.8 1.5-1.8 2.8-2.8 4.2-.5.8-1.1 1.6-1.7 2.4-.9 1.2-1.8 2.3-2.7 3.4-.8 1-1.6 2-2.4 2.9-1.5 1.6-2.9 3.2-4.5 4.7-1.9 1.7-3.8 3.4-5.8 5-1.7 1.4-3.6 2.7-5.4 4-1.2.8-2.4 1.6-3.6 2.3l-5.1 3c-1.1.6-2.2 1.1-3.3 1.6-1.5.7-2.9 1.3-4.4 1.9-1.6.7-3.3 1.3-5 1.8-2.1.7-4.2 1.4-6.4 1.9-2.6.7-5.1 1.2-7.8 1.6-2.2.3-4.4.6-6.6.8-2.9.3-5.9.3-8.8.3-2 0-4-.3-5.9-.4-1.2-.1-2.4-.2-3.6-.4-2.4-.4-4.9-.9-7.3-1.4-1.3-.3-2.6-.5-3.8-.9l-7.2-2.4c-1.6-.6-3.3-1.3-4.8-2-1.2-.5-2.4-1.2-3.6-1.8-1.1-.6-2.2-1.1-3.3-1.7-.8-.4-1.7-.9-2.5-1.4-1.2-.7-2.3-1.4-3.4-2.2a110.41 110.41 0 0 1-9.3-7.2c-1.4-1.2-2.7-2.6-4-3.9-1-1-2-2.1-3-3.1-1-1.2-2.1-2.4-3-3.6-1.1-1.4-2.2-2.9-3.2-4.3-1.1-1.6-2.2-3.2-3.1-4.9-1.2-2.2-2.4-4.4-3.5-6.6-1.3-2.5-2.4-5.1-3.3-7.8l-2.4-7.8c-.7-2.5-1.2-5.1-1.5-7.7-.2-1.8-.5-3.6-.7-5.4-.1-1.3-.2-2.6-.2-3.9v-8c.1-1.8.2-3.7.5-5.5.4-2.6.9-5.1 1.4-7.6.3-1.4.6-2.8 1.1-4.2.7-2.3 1.4-4.7 2.2-7 .5-1.6 1.2-3.1 1.8-4.6.4-.9.8-1.9 1.2-2.8.5-1.1 1.1-2.2 1.7-3.3 1.2-2.1 2.4-4.2 3.8-6.3 1.2-1.9 2.6-3.6 3.9-5.5 1.6-2.2 3.4-4.3 5.3-6.3 1.4-1.5 2.9-2.9 4.4-4.3 2-1.8 4.1-3.6 6.2-5.3 1.6-1.3 3.3-2.4 5-3.5 1.9-1.3 3.9-2.5 5.9-3.6 1.4-.8 3-1.4 4.4-2.2 2.4-1.2 4.9-2.2 7.5-3.2 3-1.1 6-2 9.1-2.7 2-.4 3.9-.8 5.9-1.1 1-.2 2-.4 2.9-.5.6-.1 1.2-.1 2-.2-.4.6-.6 1-.9 1.5l-1.8 3c-.2.3-.4.4-.7.4-2.2.4-4.4.7-6.6 1.3-3 .8-6.1 1.5-9 2.8-1.4.6-2.8 1-4.2 1.6-1.5.7-3.1 1.4-4.5 2.1a76.45 76.45 0 0 0-11.1 6.9c-1.3.9-2.6 1.9-3.9 2.9-1 .8-2 1.7-2.9 2.6-1.4 1.3-2.7 2.6-4 3.9-1.2 1.2-2.3 2.5-3.4 3.8-1.1 1.3-2.2 2.6-3.2 4-1.3 1.8-2.5 3.6-3.7 5.4-1 1.6-2 3.3-2.9 4.9-.7 1.2-1.2 2.5-1.8 3.7-.7 1.4-1.3 2.9-1.9 4.4-.7 1.9-1.4 3.9-2 5.9-.5 1.6-.9 3.2-1.3 4.8-.4 1.7-.7 3.4-1.1 5.1-.5 2-.6 4-.9 6-.1 1-.1 2.1-.2 3.1-.1 1.6-.2 3.2-.2 4.8.1 2.5.3 4.9.5 7.4.1 1.6.2 3.1.5 4.7.4 2 .9 4 1.3 6.1l.9 3.7c.5 1.8 1.1 3.6 1.8 5.3.8 2.1 1.7 4.2 2.6 6.2.7 1.5 1.4 3 2.3 4.4 1.3 2.2 2.5 4.4 4 6.5 1.3 1.9 2.7 3.7 4.1 5.5 1.8 2.4 3.9 4.5 6.1 6.7 1 1 2 1.9 3.1 2.8 1.7 1.4 3.3 2.8 5.1 4.1 1.3 1 2.7 2 4.1 2.9 2.1 1.4 4.3 2.6 6.5 3.8 2.6 1.4 5.3 2.7 8 3.7 2.2.8 4.3 1.6 6.5 2.3 1.4.5 2.8.8 4.2 1.1 1.8.4 3.6.9 5.5 1.2 1.7.3 3.4.5 5 .6 1.6.2 3.2.3 4.8.3 2.7.1 5.3.2 8 .1 2.1-.1 4.1-.4 6.1-.6 2.8-.3 5.6-.9 8.3-1.5 1.7-.4 3.3-.9 4.9-1.4 1.7-.5 3.4-1.1 5-1.7 1.9-.7 3.7-1.5 5.5-2.3 1.9-.9 3.9-1.8 5.7-2.8 2-1.1 4.1-2.3 6-3.6 2.5-1.8 5-3.6 7.4-5.6 2.7-2.3 5.3-4.7 7.6-7.4 1.7-2 3.4-3.9 4.9-6 1.5-2 2.8-4.1 4.1-6.2 1.1-1.7 2.1-3.5 3-5.3.6-1.1 1.1-2.3 1.6-3.4.1-.2.1-.4.2-.6.2-.3.4-.6.5-.9.2-.5.3-.9.5-1.4l.3-.6c0-.1.1-.2.1-.3 0-.1.1-.2.1-.3.3-.8.5-1.5.8-2.3.1-.2.2-.3.2-.5l1.2-3.9c.2-.6.4-1.1.5-1.7.3-1.3.7-2.6 1-3.9.4-2.3.8-4.6 1.1-6.9.3-2.1.4-4.3.5-6.5.1-1.2.1-2.5.1-3.7 0-.4-.1-.7-.1-1.1v-1.8c-.1-1.9-.2-3.9-.6-5.8-.2-1.2-.3-2.4-.5-3.6-.3-1.7-.6-3.3-1-5-.5-2.2-1.2-4.3-1.8-6.4-.5-1.5-1-3-1.6-4.5-.6-1.6-1.3-3.1-2-4.7-.9-1.8-1.8-3.6-2.8-5.3-1.2-2.3-2.7-4.5-4.2-6.6-1.3-1.8-2.6-3.6-4.1-5.3-1.5-1.8-3.1-3.4-4.7-5.1a37.8 37.8 0 0 0-4.1-3.9c-1.7-1.5-3.5-2.8-5.3-4.2-1.2-.9-2.4-1.7-3.6-2.5-1.9-1.2-3.8-2.3-5.8-3.4-1.3-.8-2.7-1.4-4.1-2.1-3.3-1.6-6.7-3-10.2-4-1.5-.5-3.1-.9-4.6-1.2-1.8-.4-3.5-.9-5.3-1.2-1.9-.3-3.9-.6-5.8-.8-1.7-.2-3.4-.2-5.1-.3l-2.6-.3c-.4 0-.8-.1-1.2 0-.6.2-.9 0-1.2-.5-.7-1.2-1.4-2.3-2.1-3.6.3-.1.5-.2.7-.2h4.7l5.6.3c1.8.2 3.6.3 5.4.6 2.6.5 5.1 1 7.7 1.6 2.3.6 4.6 1.2 6.8 1.9 2.5.9 4.9 1.9 7.4 2.9 2.1.9 4.1 1.9 6.2 3 2.7 1.4 5.2 2.9 7.7 4.7a82.08 82.08 0 0 1 19.3 18.3c1.4 2 2.9 3.9 4.2 6 1.5 2.4 2.8 4.9 4.1 7.3 1.7 3.2 3 6.5 4.2 10 .6 1.8 1.2 3.7 1.7 5.5.4 1.5.7 3 1.1 4.5.5 2.1.9 4.2 1.1 6.3l.6 4.4c.1 1.3.2 2.6.2 3.9.5 2.2.4 4.6.4 7z"/><path d="M145.9 136.7c-.5-.2-.1-.7-.3-1-.5.2-.5.2-.6.8l.4 2.7c0 .1.1.2.1.4 0 .4.2.5.6.3v-1c0-.4-.1-.8-.1-1.2-.1-.3-.1-.6-.1-1zM144.1 136.2c0-.1-.1-.1-.1-.2-.4.1-.4.2-.5.7l.5 2.2h.6l-.5-2.7z"/></g></svg>