<svg xmlns="http://www.w3.org/2000/svg" viewBox="0 0 252 360"><defs><path id="a" d="M-343.9 436h2043.2v851.4H-343.9z"/></defs><g fill="#929A9B"><path d="M0 167.3c1 .4 1.9 1 2.8 1.6 4 2.4 8.1 4.8 12.3 6.9 1.8.9 3.7 1.4 5.7 1.3 1.1-.1 2.1-.5 3.2-.9 2.6-1 5.1-2.3 7.6-3.5 3.1-1.6 6.3-3 9.4-4.5.3-.2.4-.1.4.3v2.4c0 .2-.1.4-.3.5-5 2.3-9.9 4.9-15 7.1-1.4.6-2.7 1.1-4.2 1.4-2.4.4-4.7.1-7-.9-3.3-1.5-6.4-3.3-9.6-5.1-1.6-.9-3.2-1.9-4.7-2.8-.2-.1-.4-.3-.6-.3v-3.5z"/><path d="M0 173.5c1 .4 2 1.1 3 1.6 4.2 2.4 8.4 4.9 12.9 6.9 1.8.8 3.6 1.1 5.5.8 1.3-.2 2.5-.7 3.7-1.2 3.9-1.6 7.7-3.6 11.5-5.3 1.5-.7 2.9-1.3 4.4-2 .3-.1.4-.1.4.2v2.5c0 .2-.1.3-.3.4-5.2 2.3-10.2 4.9-15.4 7.1-1.3.5-2.6 1-3.9 1.2-2.6.4-5-.1-7.4-1.2-4.3-2-8.3-4.3-12.4-6.6-.6-.4-1.2-.8-1.9-1-.1-1.2-.1-2.3-.1-3.4z"/><path d="M0 179.7c.2-.1.3.1.4.1 3.6 2 7.2 4.1 10.8 6 1.4.7 2.9 1.4 4.3 2.1 2.9 1.3 5.8 1.2 8.7 0 3.4-1.4 6.8-3 10.1-4.5 2.2-1 4.4-2 6.6-2.9.1 0 .2-.1.4-.1v3c0 .2-.1.2-.2.3-5.5 2.3-10.8 5.1-16.3 7.3-1.2.5-2.4.9-3.7 1-2.4.2-4.7-.3-6.8-1.3-4.1-1.9-8.1-4.1-12.1-6.3-.7-.4-1.4-.9-2.2-1.2v-3.5zM22.4 158.8l1.7.3c1.9.4 3.6 1.3 5.4 2.2 3.8 1.9 7.4 3.9 11 6 .1.1.3.1.4.3 0 .2-.2.2-.4.3-.8.4-1.6.7-2.4 1.1-.2.1-.4.1-.6 0-2.9-1.7-5.9-3.3-8.9-4.8-1.5-.7-2.9-1.5-4.5-2-2.6-.8-5-.4-7.5.6-3.4 1.4-6.8 2.9-10.2 4.4-.3.1-.6.1-.9 0-.8-.5-1.6-.9-2.4-1.3-.1-.1-.2-.1-.2-.2s.2-.1.3-.2c4.1-1.8 8.1-3.7 12.3-5.4 1.3-.5 2.7-1 4.1-1.2 0 0 .1 0 .1-.1h2.7zM252 184.6h-.9c-.5.1-.6-.2-.6-.6 0-.5-.1-.9-.2-1.4-.3.3-.5.6-.8.9-2.2 2.2-7 1.8-8.3-1.8-.8-2.2-.8-4.5.1-6.6.8-1.9 2.3-2.8 4.4-3 1.9-.1 3.4.6 4.5 2.1.1-.1.1-.3.1-.4v-7.3c0-.4.1-.5.5-.5 1.1 0 1.1 0 1.1 1.1v15.6c0 .1-.1.3.1.4v1.5zm-1.6-6v-1.2c0-1.9-1.4-3.4-3.4-3.8-1.9-.3-3.6.6-4.2 2.5-.5 1.5-.5 2.9-.1 4.4a3.7 3.7 0 0 0 3.5 2.9c2 0 3.6-1.1 4.1-2.8.2-.7 0-1.4.1-2zM160.2 175.2c1.8.6 2.8 1.9 2.9 3.8 0 .8 0 1.5-.1 2.3-.4 1.8-1.7 3-3.6 3.2-.5.1-1.1.1-1.6.1h-6.9c-.3 0-.4-.1-.4-.4v-17.3c0-.3.1-.4.4-.4h6.8c.6 0 1.1.1 1.7.2 2 .5 3.1 2 3.2 4.2 0 1.3-.2 2.6-1.2 3.6-.4.3-.8.5-1.2.7zm-8.1 4.4v3.1c0 .2 0 .4.3.4 2.1 0 4.2.1 6.2-.1 1.5-.1 2.5-1 2.7-2.5.1-.7.1-1.4-.1-2.1-.3-1.1-.9-1.9-2.1-2.1-.4-.1-.8-.1-1.2-.1h-5.5c-.3 0-.4.1-.4.4.1.9.1 2 .1 3zm0-8.3v2.9c0 .2 0 .4.3.4 1.9 0 3.9.1 5.8-.1 1.3-.1 2.1-.7 2.4-1.9.2-.9.2-1.8 0-2.7-.2-1-.8-1.5-1.8-1.7-.3-.1-.7-.1-1-.1h-5.3c-.3 0-.4.1-.4.4v2.8zM50.6 175.6v-8.5c0-.4.1-.6.5-.6 1.1 0 1.1 0 1.1 1.1v6.5c0 .3.1.4.4.4h9.1c.4 0 .5-.1.5-.5v-7.1c0-.4.1-.5.5-.5 1.1 0 1.1 0 1.1 1.1V184c0 .4-.1.5-.5.5-1.1 0-1.1 0-1.1-1.1v-7c0-.4-.1-.5-.5-.5h-9.1c-.4 0-.4.1-.4.4v7.7c0 .4-.1.5-.4.4-.4 0-.9.1-1.1-.1-.3-.2-.1-.7-.1-1.1v-7.6z"/><path d="M20.9 164.5c2.4 0 4.5.7 6.6 1.7 2.5 1.2 4.9 2.6 7.4 3.9.1.1.3.1.3.2 0 .2-.2.2-.3.2l-2.4 1.2c-.3.1-.5.1-.8 0-2.1-1.2-4.2-2.3-6.3-3.3a9.34 9.34 0 0 0-8-.1c-1.7.8-3.5 1.5-5.2 2.2-.2.1-.4.1-.6 0-.8-.5-1.7-.9-2.5-1.4-.1-.1-.3-.1-.3-.2s.1-.1.2-.2c2.8-1.2 5.5-2.5 8.4-3.6 1.2-.4 2.4-.7 3.5-.6zM117.1 174.2c.1-.1 0-.3 0-.4v-7.2c0-.4.1-.5.5-.5 1.1 0 1.1 0 1.1 1.1v14.9c0 .7.1 1.5.1 2.2 0 .3-.1.3-.3.3-1.1 0-1.1 0-1.2-1.1 0-.3-.1-.6-.1-.8-.1-.1-.2.1-.2.1-1.3 1.7-3 2.3-5.1 1.9-2-.3-3.3-1.6-3.9-3.5-.6-2.2-.6-4.4.3-6.5.8-1.8 2.4-2.6 4.3-2.7 1.8-.1 3.3.5 4.4 2 0 .1.1.2.1.2zm0 4.3c0-.6.1-1.3 0-1.9-.3-1.6-1.9-2.9-3.6-3-2-.1-3.3.8-3.9 2.6-.5 1.5-.5 3-.1 4.5s1.4 2.5 3.1 2.7c2.7.4 4.8-1.9 4.6-3.9-.1-.4-.1-.7-.1-1zM74.6 182.6c-1.5 2.2-4.5 2.7-6.7 2-1.4-.5-2.2-1.6-2.2-3.2s.7-2.7 2.2-3.2c1.3-.5 2.7-.6 4.1-.8l2.3-.3c.3 0 .3-.1.3-.4 0-1.8-.6-2.6-2.4-3-.6-.1-1.3-.2-1.9-.1-1.3.1-2 .8-2.4 2-.1.3-.2.4-.5.3-.2-.1-.5-.1-.7-.1-.4 0-.5-.1-.4-.5.5-1.8 1.7-2.8 3.5-3 1.2-.2 2.4-.1 3.6.3 1.7.6 2.7 1.9 2.7 3.7v4.2c0 1.3.1 2.6.1 3.9 0 .3 0 .4-.4.4-1 0-1 0-1.1-.9.1-.5 0-.9-.1-1.3zm0-3.3v-.6c0-.3-.1-.4-.4-.4-1.1.2-2.1.3-3.2.5-.9.2-1.9.2-2.7.7-.9.5-1.2 1.2-1 2.3.1.8.7 1.3 1.5 1.5.8.2 1.5.2 2.3 0 2.2-.5 3.5-2 3.5-4zM209.3 175.6V167c0-.4.1-.5.5-.5h10.6c.4 0 .5.1.5.5 0 1.1 0 1.1-1.1 1.1h-8.3c-.5 0-.6.1-.5.6v5.5c0 .4.1.5.5.5h8.1c.4 0 .5.1.5.5 0 1.1 0 1.1-1.1 1.1h-7.5c-.4 0-.5.1-.5.5v7.6c0 .4-.1.5-.5.5s-.9.2-1.1-.1c-.2-.2-.1-.7-.1-1.1v-8.1zM96.6 179.1h-4.2c-.3 0-.4.1-.4.4.1 1.4.5 2.7 1.8 3.4 1.3.7 2.7.7 4.1.2.7-.3 1.2-.9 1.4-1.7.1-.3.2-.4.5-.3.3.1.6.1 1 .1s.3.2.3.4a4 4 0 0 1-1.8 2.4c-1.8 1.1-5.3 1.2-7.1-.6-.8-.8-1.3-1.8-1.5-2.9-.3-1.6-.3-3.2.1-4.7.6-2.2 2.4-3.7 4.7-3.8 1-.1 2.1 0 3.1.4 1.3.6 2 1.7 2.4 3.1.3 1 .3 2.1.3 3.1 0 .3-.2.3-.4.3-1.5.2-2.9.2-4.3.2zm-.8-1.4h2.5c1.4 0 1.4 0 1.1-1.4-.2-1.1-.7-2.2-1.9-2.6-1.2-.4-2.3-.3-3.4.2-1.3.6-1.8 1.8-1.9 3.2-.1.4 0 .6.5.6h3.1zM170.4 179.1h-4.2c-.3 0-.4.1-.4.4.1.4.1.9.2 1.3.4 1.6 1.7 2.5 3.3 2.6.5 0 1 0 1.5-.1 1.1-.2 1.9-.9 2.2-1.9.1-.3.2-.4.5-.3.3.1.6.1.9.1.4 0 .4.2.3.4-.3 1.1-1 2-2 2.5-1.9.9-3.9.9-5.8 0-1.2-.6-2-1.6-2.4-2.9-.6-1.9-.6-3.8 0-5.7.7-2.1 2.5-3.4 4.7-3.5 1.1 0 2.2 0 3.2.6 1.4.7 2 2 2.3 3.5.2.9.2 1.7.2 2.6 0 .3-.1.4-.4.4h-4.1zm-.8-1.4h2.6c1.3 0 1.3 0 1.1-1.3-.3-1.7-1.2-2.7-2.7-2.9-2-.2-4 .5-4.5 3.1 0 .2 0 .4-.1.6-.1.3 0 .4.3.4 1.1.1 2.2.1 3.3.1zM126.8 179.1h-4.2c-.3 0-.5.1-.4.4.1.3.1.6.1.9.4 1.9 1.7 3 3.6 3 .4 0 .9 0 1.3-.1 1.2-.2 1.9-.9 2.2-2 .1-.3.2-.4.5-.3.3.1.6.1.9.1.4 0 .4.2.3.4-.3 1-.8 1.9-1.8 2.4-2 1.1-4.2 1.2-6.3.1-1.2-.6-2-1.7-2.3-3a9.9 9.9 0 0 1 0-5.4c.6-2.2 2.4-3.6 4.7-3.7 1 0 2 0 2.9.4 1.6.7 2.3 2 2.6 3.5.2.9.2 1.8.3 2.7 0 .3-.1.4-.4.4-1.2.2-2.6.2-4 .2zm-.9-1.4h3.3c.4 0 .5-.1.4-.5-.1-.7-.2-1.4-.5-2-.3-.7-.8-1.2-1.5-1.5a4.3 4.3 0 0 0-3.8.5c-1 .7-1.4 1.7-1.5 2.9-.1.6-.1.6.6.6h3zM232.1 178.5c0 .9-.1 1.8-.3 2.7-.8 2.7-3.1 3.8-5.7 3.6-3-.2-4.8-2.1-5-5.1-.1-1.3-.1-2.7.3-4a4.9 4.9 0 0 1 4.5-3.7c1-.1 2.1 0 3.1.4 1.9.8 2.7 2.3 3 4.2.1.7.1 1.3.1 1.9zm-9.5 0c0 .5 0 1.1.1 1.6.3 2 1.6 3.2 3.5 3.3 2.2.1 3.6-.9 4.1-3 .3-1.3.3-2.5 0-3.8-.4-2-1.6-3-3.7-3.1-2-.1-3.4 1-3.8 2.9-.1.7-.2 1.4-.2 2.1zM135.4 174.3c.9-1.2 2-1.9 3.4-2.1 1.3-.2 2.6 0 3.7.7s1.6 1.8 1.6 3.1v8.3c0 .3-.1.4-.4.4-1.2 0-1.2 0-1.2-1.2v-6.9c0-1.7-.7-2.6-2.4-2.9-2.1-.4-4.2.9-4.7 3-.1.2-.1.5-.1.7v6.8c0 .3 0 .5-.4.5-1.1 0-1.1 0-1.1-1.1v-9.4c0-.5 0-1-.1-1.5 0-.2.1-.3.3-.3 1 0 1 0 1.2 1 0 .2 0 .5.2.9zM198.1 182.5c.6-1.6 1.2-3.1 1.8-4.6.7-1.7 1.4-3.5 2.1-5.2.1-.3.2-.4.5-.4h1c.3 0 .4 0 .3.4-.6 1.3-1.1 2.7-1.7 4-1.7 4.1-3.5 8.1-5.1 12.3-.1.3-.2.4-.5.3H195c.4-.9.7-1.7 1.1-2.5.3-.7.6-1.5.9-2.2.1-.3.1-.5 0-.8-1.6-3.7-3.1-7.3-4.6-11-.2-.4-.2-.5.3-.5.4.1 1-.2 1.3.1.3.2.4.8.5 1.2 1.1 2.8 2.2 5.7 3.3 8.5.2.1.3.2.3.4zM86.6 173.8h-7.3c-.5 0-.6-.1-.6-.6 0-.9 0-.9.9-.9H88c.4 0 .4.1.5.5 0 .6-.1 1-.5 1.4-2.5 2.9-4.9 5.9-7.6 8.7l-.1.1c.1.1.3.1.4.1h7.6c.4 0 .5.1.5.5 0 1 0 1-1 1h-9c-.4 0-.5-.1-.5-.5 0-.5.1-1 .5-1.4 2.5-2.9 5-5.9 7.6-8.8.1 0 .1 0 .2-.1zM179.3 168.7v3.2c0 .3.1.4.4.4h3c.3 0 .4.1.4.4 0 1.1 0 1.1-1 1.1h-2.4c-.2 0-.3 0-.3.2 0 2.4-.1 4.7.1 7.1.1 1.9 1.1 2.4 3.1 2.2.7-.1.7-.1.8.6.1.8.1.8-.7.9-1.3.1-2.5 0-3.5-.9-.8-.7-1.1-1.7-1.2-2.8-.1-1.7 0-3.4-.1-5.1v-2c0-.3-.1-.4-.4-.4h-1.6c-.2 0-.3-.1-.3-.3-.1-1.2-.1-1.2 1.1-1.2 1.1 0 1.1 0 1.1-1.1v-1.6c0-.3.1-.4.4-.5.3.1.7-.1 1.1-.2zM187.5 177.5c0 1.1-.1 2.4.1 3.7.1.9.3 1.7 1.3 2 .7.2 1.4.3 2.1.1.3-.1.4 0 .4.3v.3c.1.8.1.9-.8 1-.8.1-1.7 0-2.5-.3-1.3-.5-1.9-1.5-2.1-2.8-.2-1.6-.1-3.2-.1-4.8v-2.9c0-.3-.1-.4-.3-.3h-1.5c-.3 0-.4-.1-.4-.4 0-1.1 0-1.1 1.1-1.1 1.2 0 1.2 0 1.2-1.2v-1.6c0-.2.1-.4.3-.4.4-.1.9-.5 1.1-.3.3.2.1.7.1 1.1v2c0 .3.1.4.4.4h3c.3 0 .4.1.4.4 0 1 0 1-1 1H188c-.4 0-.5.1-.5.5.1 1 0 2 0 3.3z"/><path d="M14.9 172.2c1.4-.7 2.7-1.3 4.2-1.8 1.6-.5 3.2-.5 4.8.1 1.7.7 3.4 1.5 5.1 2.3.1.1.3.1.4.3-1 .5-2.1 1-3.1 1.4-.2.1-.3 0-.4-.1-.8-.4-1.6-.7-2.4-1.1a4.2 4.2 0 0 0-4.2 0c-.9.5-1.6.4-2.4-.1-.6-.4-1.2-.7-1.9-1 0 .1 0 .1-.1 0zM235 174.4c.2-.3.4-.5.6-.7 1.2-1.4 2.8-1.8 4.6-1.5.3 0 .4.2.3.4-.1.4 0 .8-.1 1.1-.2.3-.6 0-1 0-1.8 0-3.1.7-4 2.3-.2.4-.3.9-.3 1.3v6.9c0 .3-.1.5-.4.4-1.1 0-1.1 0-1.1-1.2v-3.3c0-2.5 0-5-.1-7.5 0-.2 0-.3.3-.3 1.1-.1 1.1-.1 1.2 1.1-.1.3 0 .6 0 1zM103.7 175.3v-8.8c0-.4.1-.5.5-.5 1 0 1 0 1 1v17.1c0 .3-.1.5-.4.4-1.1 0-1.1 0-1.1-1.1v-8.1zM84.9 194.9v-4.3c0-.4.1-.5.5-.5s.5.1.5.5v7.6c0 .9 0 1.7.1 2.6 0 .2.1.4-.2.4-.2 0-.6.2-.6-.3 0-.3-.1-.5-.1-.9-.5.6-.9 1-1.6 1.2-1.8.4-3.7-.3-4-3-.1-.9-.1-1.8.3-2.7.8-2 3.6-2.5 5-.9-.1.1 0 .2.1.3zm0 2.7v-.8c0-1.1-.8-2-1.9-2.2-1.1-.2-2.1.3-2.5 1.4-.3.9-.3 1.8-.1 2.7.3 1.1 1 1.7 2.1 1.7s2.1-.7 2.4-1.7c.1-.4 0-.8 0-1.1zM92.2 200c-1.1 1.2-2.3 1.4-3.7 1.2-.9-.2-1.5-.9-1.5-1.8-.1-1 .4-1.7 1.3-2 1-.4 2.1-.4 3.1-.6.3-.1.7.1.8-.3.1-.5 0-1-.4-1.4-.6-.5-1.3-.5-2-.5-.8 0-1.2.5-1.5 1.2-.2.4-.6.1-.8.1-.3 0-.1-.3-.1-.4.2-.9.8-1.4 1.7-1.6.8-.2 1.6-.2 2.3 0 1.1.3 1.7 1.1 1.7 2.3 0 1.6-.1 3.1.1 4.7 0 .1 0 .4-.2.3-.2 0-.6.2-.6-.2-.1-.4-.1-.7-.2-1zm0-2c0-.6 0-.6-.6-.5-.3 0-.6.1-.8.1-.7.2-1.5.1-2.2.5-.4.2-.6.6-.6 1.1 0 .4.1.8.5 1 1.5.8 3.9-.6 3.7-2.2zM50.7 195.7v-4.9c0-.4.1-.4.4-.4h6c.4 0 .4.1.4.5s-.1.5-.5.5h-5c-.3 0-.5.1-.5.4v3c0 .3.1.4.4.4h4.5c.4 0 .4.2.4.5 0 .4-.1.5-.5.5h-4.5c-.3 0-.4.1-.4.4v4.2c0 .4-.1.5-.5.5s-.5-.1-.5-.5c.3-1.8.3-3.4.3-5.1zM57.6 197.5c0-.5 0-.9.1-1.4.4-1.5 1.6-2.4 3.3-2.4 1.6 0 2.7 1 3 2.6.2.9.2 1.8-.1 2.7-.4 1.6-1.5 2.3-3.4 2.3-1.4 0-2.6-1-2.9-2.4.1-.5 0-1 0-1.4zm5.6 0c0-.2 0-.5-.1-.8-.2-1.3-.9-2-2-2.1-1.3-.1-2.1.5-2.4 1.7-.2.8-.2 1.6 0 2.4.3 1.1 1.1 1.7 2.2 1.7s1.9-.6 2.2-1.7c.1-.4.1-.8.1-1.2zM108.5 197.5c0 .8-.1 1.7-.6 2.4-.8 1.2-2 1.5-3.3 1.3-1.2-.2-2.1-.9-2.5-2.1a5 5 0 0 1 .2-3.8c.6-1.2 1.9-1.8 3.5-1.6 1.3.2 2.2 1.1 2.5 2.5.1.5.2.9.2 1.3zm-1 0c0-.3 0-.7-.1-1-.2-1.2-.9-1.9-2-1.9-1.3-.1-2.1.5-2.4 1.8-.2.8-.1 1.5 0 2.3.4 1.9 2.6 2.1 3.7 1.1.7-.6.8-1.4.8-2.3zM73.2 195c.8-1.1 1.9-1.4 3.1-1.2 1.3.2 2.1 1.1 2.1 2.4v4.6c0 .5-.3.4-.5.4-.3 0-.4-.1-.4-.4v-4.2c0-1.6-1.3-2.5-2.8-1.8-.9.4-1.4 1.1-1.4 2.1v3.8c0 .4-.2.4-.5.4s-.5 0-.5-.4v-6.5c0-.2 0-.4.2-.3.2.1.6-.2.6.2 0 .3 0 .5.1.9zM110.5 195c.8-1.1 1.8-1.4 3.1-1.2 1.3.2 2.1 1.1 2.1 2.4v4.6c0 .4-.2.4-.5.4s-.5 0-.5-.4v-4.2c0-1.6-1.4-2.5-2.9-1.8-.9.4-1.4 1.1-1.4 2.1v3.8c0 .5-.2.4-.5.4s-.4-.1-.4-.4c0-2.1.1-4.3-.1-6.4 0-.2-.1-.5.2-.4.2 0 .6-.2.6.3.1.2.2.4.3.8zM70 200c-.5.6-1.1 1.1-1.8 1.2-.7.1-1.4.1-2.1-.3-.8-.4-1.2-1-1.2-1.9v-4.9c0-.5.3-.2.5-.3.2 0 .4-.1.4.3v4.2c0 1.5 1.1 2.3 2.6 1.9 1-.3 1.7-1.3 1.6-2.2-.1-1.3 0-2.6 0-3.8 0-.4.2-.4.5-.4s.5 0 .5.4v4.2c0 .8.1 1.6.1 2.3 0 .2 0 .4-.2.3-.2 0-.6.2-.6-.2-.2-.2-.2-.4-.3-.8zM96.1 191.7v1.5c-.1.5.1.6.6.6h1.4c.4 0 .3.2.3.4s.1.4-.3.4h-1.6c-.2 0-.3 0-.3.2 0 1.4-.1 2.8.1 4.2.1 1 .6 1.3 1.7 1.2.5-.1.5.2.6.5.1.4-.2.4-.5.4h-.9c-1.2-.2-1.8-.9-1.8-2.4V195c0-.3-.1-.5-.4-.4h-.4c-.4.1-.5-.1-.5-.5 0-.3.1-.4.4-.4.9 0 .9 0 .9-.9v-.2c-.2-.7-.2-.7.7-.9zM100.5 197.5v3.3c0 .4-.2.4-.4.4-.3 0-.5 0-.5-.4v-6.5c0-.4.3-.3.5-.4.3 0 .4 0 .4.4v3.2zM41.1 179.8c-1.1.5-2.1.9-3.1 1.4-.2.1-.3.1-.4 0-.5-.3-1-.6-1.6-1 .8-.4 1.5-.6 2.1-1 .7-.4 1.4-.5 2.1.1.2.2.5.3.9.5zM41.1 173.7c-1.1.5-2 .9-3 1.4-.1 0-.2.1-.3 0l-1.5-.9c-.2-.1-.1-.2 0-.3.9-.4 1.8-.9 2.7-1.3.1 0 .2-.1.3 0 .6.4 1.2.7 1.8 1.1zM30.3 176.9c1.1-.5 2.1-1 3.1-1.5.1-.1.2 0 .3 0 .4.2.8.5 1.2.7.3.1.2.3 0 .4-.9.4-1.8.8-2.7 1.3-.1.1-.2.1-.3 0-.5-.3-1-.5-1.6-.9zM99.5 191.6c0-.6 0-.6.7-.6.6 0 .5.3.5.6s.1.7-.5.6c-.7 0-.7 0-.7-.6z"/></g></svg>