<svg xmlns="http://www.w3.org/2000/svg" viewBox="0 0 82.17 82.17"><path fill="#F3F4F4" d="M41.16 81.17c-21.78 0-39.5-17.72-39.5-39.5s17.72-39.5 39.5-39.5 39.5 17.72 39.5 39.5-17.71 39.5-39.5 39.5zm0-77.01c-20.68 0-37.5 16.82-37.5 37.5s16.82 37.5 37.5 37.5 37.5-16.82 37.5-37.5-16.82-37.5-37.5-37.5z"/><path fill="#F3F4F4" d="M41 54.09c-10.2 0-18.5-8.3-18.5-18.5s8.3-18.5 18.5-18.5 18.5 8.3 18.5 18.5-8.3 18.5-18.5 18.5zm0-35.24c-9.23 0-16.74 7.51-16.74 16.74a16.75 16.75 0 0 0 33.48-.01c0-9.23-7.51-16.73-16.74-16.73z"/><path fill="#F3F4F4" d="M39.92 69.38c-.49 0-1-.43-1-.97V28.97c0-.53.51-.97 1-.97s1 .43 1 .97v39.45c0 .53-.51.96-1 .96z"/><path fill="#F3F4F4" d="M40.46 46.59a.88.88 0 0 1-.52-1.59l8.93-6.49a.88.88 0 0 1 1.04 1.42l-8.93 6.49a.92.92 0 0 1-.52.17zM39.76 40.42a.9.9 0 0 1-.5-.14l-9.14-5.49c-.4-.24-.5-.72-.23-1.07a.96.96 0 0 1 1.22-.2l9.14 5.49c.4.24.5.72.23 1.07a.88.88 0 0 1-.72.34z"/></svg>